G04 #@! TF.GenerationSoftware,KiCad,Pcbnew,(5.1.9-0-10_14)*
G04 #@! TF.CreationDate,2021-01-09T16:16:35-06:00*
G04 #@! TF.ProjectId,16-key,31362d6b-6579-42e6-9b69-6361645f7063,rev?*
G04 #@! TF.SameCoordinates,Original*
G04 #@! TF.FileFunction,Legend,Top*
G04 #@! TF.FilePolarity,Positive*
%FSLAX46Y46*%
G04 Gerber Fmt 4.6, Leading zero omitted, Abs format (unit mm)*
G04 Created by KiCad (PCBNEW (5.1.9-0-10_14)) date 2021-01-09 16:16:35*
%MOMM*%
%LPD*%
G01*
G04 APERTURE LIST*
%ADD10C,0.150000*%
%ADD11C,0.120000*%
G04 APERTURE END LIST*
D10*
X175570833Y-82478571D02*
X175237500Y-82478571D01*
X175237500Y-83002380D02*
X175237500Y-82002380D01*
X175713690Y-82002380D01*
X176523214Y-82335714D02*
X176523214Y-83002380D01*
X176094642Y-82335714D02*
X176094642Y-82859523D01*
X176142261Y-82954761D01*
X176237500Y-83002380D01*
X176380357Y-83002380D01*
X176475595Y-82954761D01*
X176523214Y-82907142D01*
X176856547Y-82335714D02*
X177237500Y-82335714D01*
X176999404Y-82002380D02*
X176999404Y-82859523D01*
X177047023Y-82954761D01*
X177142261Y-83002380D01*
X177237500Y-83002380D01*
X177999404Y-82335714D02*
X177999404Y-83002380D01*
X177570833Y-82335714D02*
X177570833Y-82859523D01*
X177618452Y-82954761D01*
X177713690Y-83002380D01*
X177856547Y-83002380D01*
X177951785Y-82954761D01*
X177999404Y-82907142D01*
X178475595Y-83002380D02*
X178475595Y-82335714D01*
X178475595Y-82526190D02*
X178523214Y-82430952D01*
X178570833Y-82383333D01*
X178666071Y-82335714D01*
X178761309Y-82335714D01*
X179475595Y-82954761D02*
X179380357Y-83002380D01*
X179189880Y-83002380D01*
X179094642Y-82954761D01*
X179047023Y-82859523D01*
X179047023Y-82478571D01*
X179094642Y-82383333D01*
X179189880Y-82335714D01*
X179380357Y-82335714D01*
X179475595Y-82383333D01*
X179523214Y-82478571D01*
X179523214Y-82573809D01*
X179047023Y-82669047D01*
X180713690Y-83002380D02*
X180713690Y-82002380D01*
X181047023Y-82716666D01*
X181380357Y-82002380D01*
X181380357Y-83002380D01*
X181856547Y-83002380D02*
X181856547Y-82335714D01*
X181856547Y-82002380D02*
X181808928Y-82050000D01*
X181856547Y-82097619D01*
X181904166Y-82050000D01*
X181856547Y-82002380D01*
X181856547Y-82097619D01*
X182761309Y-82954761D02*
X182666071Y-83002380D01*
X182475595Y-83002380D01*
X182380357Y-82954761D01*
X182332738Y-82907142D01*
X182285119Y-82811904D01*
X182285119Y-82526190D01*
X182332738Y-82430952D01*
X182380357Y-82383333D01*
X182475595Y-82335714D01*
X182666071Y-82335714D01*
X182761309Y-82383333D01*
X183189880Y-83002380D02*
X183189880Y-82335714D01*
X183189880Y-82526190D02*
X183237500Y-82430952D01*
X183285119Y-82383333D01*
X183380357Y-82335714D01*
X183475595Y-82335714D01*
X183951785Y-83002380D02*
X183856547Y-82954761D01*
X183808928Y-82907142D01*
X183761309Y-82811904D01*
X183761309Y-82526190D01*
X183808928Y-82430952D01*
X183856547Y-82383333D01*
X183951785Y-82335714D01*
X184094642Y-82335714D01*
X184189880Y-82383333D01*
X184237500Y-82430952D01*
X184285119Y-82526190D01*
X184285119Y-82811904D01*
X184237500Y-82907142D01*
X184189880Y-82954761D01*
X184094642Y-83002380D01*
X183951785Y-83002380D01*
X185427976Y-82954761D02*
X185570833Y-83002380D01*
X185808928Y-83002380D01*
X185904166Y-82954761D01*
X185951785Y-82907142D01*
X185999404Y-82811904D01*
X185999404Y-82716666D01*
X185951785Y-82621428D01*
X185904166Y-82573809D01*
X185808928Y-82526190D01*
X185618452Y-82478571D01*
X185523214Y-82430952D01*
X185475595Y-82383333D01*
X185427976Y-82288095D01*
X185427976Y-82192857D01*
X185475595Y-82097619D01*
X185523214Y-82050000D01*
X185618452Y-82002380D01*
X185856547Y-82002380D01*
X185999404Y-82050000D01*
X186427976Y-83002380D02*
X186427976Y-82002380D01*
X186666071Y-82002380D01*
X186808928Y-82050000D01*
X186904166Y-82145238D01*
X186951785Y-82240476D01*
X186999404Y-82430952D01*
X186999404Y-82573809D01*
X186951785Y-82764285D01*
X186904166Y-82859523D01*
X186808928Y-82954761D01*
X186666071Y-83002380D01*
X186427976Y-83002380D01*
X188761309Y-82907142D02*
X188713690Y-82954761D01*
X188570833Y-83002380D01*
X188475595Y-83002380D01*
X188332738Y-82954761D01*
X188237500Y-82859523D01*
X188189880Y-82764285D01*
X188142261Y-82573809D01*
X188142261Y-82430952D01*
X188189880Y-82240476D01*
X188237500Y-82145238D01*
X188332738Y-82050000D01*
X188475595Y-82002380D01*
X188570833Y-82002380D01*
X188713690Y-82050000D01*
X188761309Y-82097619D01*
X189618452Y-83002380D02*
X189618452Y-82478571D01*
X189570833Y-82383333D01*
X189475595Y-82335714D01*
X189285119Y-82335714D01*
X189189880Y-82383333D01*
X189618452Y-82954761D02*
X189523214Y-83002380D01*
X189285119Y-83002380D01*
X189189880Y-82954761D01*
X189142261Y-82859523D01*
X189142261Y-82764285D01*
X189189880Y-82669047D01*
X189285119Y-82621428D01*
X189523214Y-82621428D01*
X189618452Y-82573809D01*
X190094642Y-83002380D02*
X190094642Y-82335714D01*
X190094642Y-82526190D02*
X190142261Y-82430952D01*
X190189880Y-82383333D01*
X190285119Y-82335714D01*
X190380357Y-82335714D01*
X191142261Y-83002380D02*
X191142261Y-82002380D01*
X191142261Y-82954761D02*
X191047023Y-83002380D01*
X190856547Y-83002380D01*
X190761309Y-82954761D01*
X190713690Y-82907142D01*
X190666071Y-82811904D01*
X190666071Y-82526190D01*
X190713690Y-82430952D01*
X190761309Y-82383333D01*
X190856547Y-82335714D01*
X191047023Y-82335714D01*
X191142261Y-82383333D01*
X192713690Y-82478571D02*
X192856547Y-82526190D01*
X192904166Y-82573809D01*
X192951785Y-82669047D01*
X192951785Y-82811904D01*
X192904166Y-82907142D01*
X192856547Y-82954761D01*
X192761309Y-83002380D01*
X192380357Y-83002380D01*
X192380357Y-82002380D01*
X192713690Y-82002380D01*
X192808928Y-82050000D01*
X192856547Y-82097619D01*
X192904166Y-82192857D01*
X192904166Y-82288095D01*
X192856547Y-82383333D01*
X192808928Y-82430952D01*
X192713690Y-82478571D01*
X192380357Y-82478571D01*
X193523214Y-83002380D02*
X193427976Y-82954761D01*
X193380357Y-82907142D01*
X193332738Y-82811904D01*
X193332738Y-82526190D01*
X193380357Y-82430952D01*
X193427976Y-82383333D01*
X193523214Y-82335714D01*
X193666071Y-82335714D01*
X193761309Y-82383333D01*
X193808928Y-82430952D01*
X193856547Y-82526190D01*
X193856547Y-82811904D01*
X193808928Y-82907142D01*
X193761309Y-82954761D01*
X193666071Y-83002380D01*
X193523214Y-83002380D01*
X194713690Y-83002380D02*
X194713690Y-82478571D01*
X194666071Y-82383333D01*
X194570833Y-82335714D01*
X194380357Y-82335714D01*
X194285119Y-82383333D01*
X194713690Y-82954761D02*
X194618452Y-83002380D01*
X194380357Y-83002380D01*
X194285119Y-82954761D01*
X194237500Y-82859523D01*
X194237500Y-82764285D01*
X194285119Y-82669047D01*
X194380357Y-82621428D01*
X194618452Y-82621428D01*
X194713690Y-82573809D01*
X195189880Y-83002380D02*
X195189880Y-82335714D01*
X195189880Y-82526190D02*
X195237500Y-82430952D01*
X195285119Y-82383333D01*
X195380357Y-82335714D01*
X195475595Y-82335714D01*
X196237500Y-83002380D02*
X196237500Y-82002380D01*
X196237500Y-82954761D02*
X196142261Y-83002380D01*
X195951785Y-83002380D01*
X195856547Y-82954761D01*
X195808928Y-82907142D01*
X195761309Y-82811904D01*
X195761309Y-82526190D01*
X195808928Y-82430952D01*
X195856547Y-82383333D01*
X195951785Y-82335714D01*
X196142261Y-82335714D01*
X196237500Y-82383333D01*
X169330952Y-98083630D02*
X168759523Y-98083630D01*
X169045238Y-98083630D02*
X169045238Y-97083630D01*
X168950000Y-97226488D01*
X168854761Y-97321726D01*
X168759523Y-97369345D01*
X170188095Y-97083630D02*
X169997619Y-97083630D01*
X169902380Y-97131250D01*
X169854761Y-97178869D01*
X169759523Y-97321726D01*
X169711904Y-97512202D01*
X169711904Y-97893154D01*
X169759523Y-97988392D01*
X169807142Y-98036011D01*
X169902380Y-98083630D01*
X170092857Y-98083630D01*
X170188095Y-98036011D01*
X170235714Y-97988392D01*
X170283333Y-97893154D01*
X170283333Y-97655059D01*
X170235714Y-97559821D01*
X170188095Y-97512202D01*
X170092857Y-97464583D01*
X169902380Y-97464583D01*
X169807142Y-97512202D01*
X169759523Y-97559821D01*
X169711904Y-97655059D01*
X170711904Y-97702678D02*
X171473809Y-97702678D01*
X171950000Y-98083630D02*
X171950000Y-97083630D01*
X172521428Y-98083630D02*
X172092857Y-97512202D01*
X172521428Y-97083630D02*
X171950000Y-97655059D01*
X173330952Y-98036011D02*
X173235714Y-98083630D01*
X173045238Y-98083630D01*
X172950000Y-98036011D01*
X172902380Y-97940773D01*
X172902380Y-97559821D01*
X172950000Y-97464583D01*
X173045238Y-97416964D01*
X173235714Y-97416964D01*
X173330952Y-97464583D01*
X173378571Y-97559821D01*
X173378571Y-97655059D01*
X172902380Y-97750297D01*
X173711904Y-97416964D02*
X173950000Y-98083630D01*
X174188095Y-97416964D02*
X173950000Y-98083630D01*
X173854761Y-98321726D01*
X173807142Y-98369345D01*
X173711904Y-98416964D01*
X176229464Y-100417261D02*
X176134226Y-100464880D01*
X175943750Y-100464880D01*
X175848511Y-100417261D01*
X175800892Y-100369642D01*
X175753273Y-100274404D01*
X175753273Y-99988690D01*
X175800892Y-99893452D01*
X175848511Y-99845833D01*
X175943750Y-99798214D01*
X176134226Y-99798214D01*
X176229464Y-99845833D01*
X176800892Y-100464880D02*
X176705654Y-100417261D01*
X176658035Y-100322023D01*
X176658035Y-99464880D01*
X177086607Y-99798214D02*
X177277083Y-100464880D01*
X177467559Y-99988690D01*
X177658035Y-100464880D01*
X177848511Y-99798214D01*
X178943750Y-99560119D02*
X178991369Y-99512500D01*
X179086607Y-99464880D01*
X179324702Y-99464880D01*
X179419940Y-99512500D01*
X179467559Y-99560119D01*
X179515178Y-99655357D01*
X179515178Y-99750595D01*
X179467559Y-99893452D01*
X178896130Y-100464880D01*
X179515178Y-100464880D01*
X180134226Y-99464880D02*
X180229464Y-99464880D01*
X180324702Y-99512500D01*
X180372321Y-99560119D01*
X180419940Y-99655357D01*
X180467559Y-99845833D01*
X180467559Y-100083928D01*
X180419940Y-100274404D01*
X180372321Y-100369642D01*
X180324702Y-100417261D01*
X180229464Y-100464880D01*
X180134226Y-100464880D01*
X180038988Y-100417261D01*
X179991369Y-100369642D01*
X179943750Y-100274404D01*
X179896130Y-100083928D01*
X179896130Y-99845833D01*
X179943750Y-99655357D01*
X179991369Y-99560119D01*
X180038988Y-99512500D01*
X180134226Y-99464880D01*
X180848511Y-99560119D02*
X180896130Y-99512500D01*
X180991369Y-99464880D01*
X181229464Y-99464880D01*
X181324702Y-99512500D01*
X181372321Y-99560119D01*
X181419940Y-99655357D01*
X181419940Y-99750595D01*
X181372321Y-99893452D01*
X180800892Y-100464880D01*
X181419940Y-100464880D01*
X182038988Y-99464880D02*
X182134226Y-99464880D01*
X182229464Y-99512500D01*
X182277083Y-99560119D01*
X182324702Y-99655357D01*
X182372321Y-99845833D01*
X182372321Y-100083928D01*
X182324702Y-100274404D01*
X182277083Y-100369642D01*
X182229464Y-100417261D01*
X182134226Y-100464880D01*
X182038988Y-100464880D01*
X181943750Y-100417261D01*
X181896130Y-100369642D01*
X181848511Y-100274404D01*
X181800892Y-100083928D01*
X181800892Y-99845833D01*
X181848511Y-99655357D01*
X181896130Y-99560119D01*
X181943750Y-99512500D01*
X182038988Y-99464880D01*
X182800892Y-100083928D02*
X183562797Y-100083928D01*
X184229464Y-99464880D02*
X184324702Y-99464880D01*
X184419940Y-99512500D01*
X184467559Y-99560119D01*
X184515178Y-99655357D01*
X184562797Y-99845833D01*
X184562797Y-100083928D01*
X184515178Y-100274404D01*
X184467559Y-100369642D01*
X184419940Y-100417261D01*
X184324702Y-100464880D01*
X184229464Y-100464880D01*
X184134226Y-100417261D01*
X184086607Y-100369642D01*
X184038988Y-100274404D01*
X183991369Y-100083928D01*
X183991369Y-99845833D01*
X184038988Y-99655357D01*
X184086607Y-99560119D01*
X184134226Y-99512500D01*
X184229464Y-99464880D01*
X185515178Y-100464880D02*
X184943750Y-100464880D01*
X185229464Y-100464880D02*
X185229464Y-99464880D01*
X185134226Y-99607738D01*
X185038988Y-99702976D01*
X184943750Y-99750595D01*
X185943750Y-100083928D02*
X186705654Y-100083928D01*
X187372321Y-99464880D02*
X187467559Y-99464880D01*
X187562797Y-99512500D01*
X187610416Y-99560119D01*
X187658035Y-99655357D01*
X187705654Y-99845833D01*
X187705654Y-100083928D01*
X187658035Y-100274404D01*
X187610416Y-100369642D01*
X187562797Y-100417261D01*
X187467559Y-100464880D01*
X187372321Y-100464880D01*
X187277083Y-100417261D01*
X187229464Y-100369642D01*
X187181845Y-100274404D01*
X187134226Y-100083928D01*
X187134226Y-99845833D01*
X187181845Y-99655357D01*
X187229464Y-99560119D01*
X187277083Y-99512500D01*
X187372321Y-99464880D01*
X188181845Y-100464880D02*
X188372321Y-100464880D01*
X188467559Y-100417261D01*
X188515178Y-100369642D01*
X188610416Y-100226785D01*
X188658035Y-100036309D01*
X188658035Y-99655357D01*
X188610416Y-99560119D01*
X188562797Y-99512500D01*
X188467559Y-99464880D01*
X188277083Y-99464880D01*
X188181845Y-99512500D01*
X188134226Y-99560119D01*
X188086607Y-99655357D01*
X188086607Y-99893452D01*
X188134226Y-99988690D01*
X188181845Y-100036309D01*
X188277083Y-100083928D01*
X188467559Y-100083928D01*
X188562797Y-100036309D01*
X188610416Y-99988690D01*
X188658035Y-99893452D01*
X190419940Y-100464880D02*
X190086607Y-99988690D01*
X189848511Y-100464880D02*
X189848511Y-99464880D01*
X190229464Y-99464880D01*
X190324702Y-99512500D01*
X190372321Y-99560119D01*
X190419940Y-99655357D01*
X190419940Y-99798214D01*
X190372321Y-99893452D01*
X190324702Y-99941071D01*
X190229464Y-99988690D01*
X189848511Y-99988690D01*
X191229464Y-100417261D02*
X191134226Y-100464880D01*
X190943750Y-100464880D01*
X190848511Y-100417261D01*
X190800892Y-100322023D01*
X190800892Y-99941071D01*
X190848511Y-99845833D01*
X190943750Y-99798214D01*
X191134226Y-99798214D01*
X191229464Y-99845833D01*
X191277083Y-99941071D01*
X191277083Y-100036309D01*
X190800892Y-100131547D01*
X191610416Y-99798214D02*
X191848511Y-100464880D01*
X192086607Y-99798214D01*
X192467559Y-100369642D02*
X192515178Y-100417261D01*
X192467559Y-100464880D01*
X192419940Y-100417261D01*
X192467559Y-100369642D01*
X192467559Y-100464880D01*
X193658035Y-100179166D02*
X194134226Y-100179166D01*
X193562797Y-100464880D02*
X193896130Y-99464880D01*
X194229464Y-100464880D01*
D11*
G04 #@! TO.C,*
X181432250Y-92868750D02*
G75*
G03*
X181432250Y-92868750I-1251000J0D01*
G01*
X170319750Y-29368750D02*
G75*
G03*
X170319750Y-29368750I-1251000J0D01*
G01*
X90151000Y-26193750D02*
G75*
G03*
X90151000Y-26193750I-1251000J0D01*
G01*
X90151000Y-97631250D02*
G75*
G03*
X90151000Y-97631250I-1251000J0D01*
G01*
G04 #@! TO.C,R1*
X182670814Y-56297500D02*
X182216686Y-56297500D01*
X182670814Y-54827500D02*
X182216686Y-54827500D01*
G04 #@! TO.C,MICROSD1*
X174526250Y-86410000D02*
X173831250Y-86410000D01*
X174526250Y-85725000D02*
X174526250Y-86410000D01*
X173222974Y-85040000D02*
X173136250Y-85040000D01*
X174526250Y-85040000D02*
X174439526Y-85040000D01*
X173136250Y-85040000D02*
X173136250Y-78165000D01*
X174526250Y-85040000D02*
X174526250Y-78165000D01*
X173436757Y-78165000D02*
X173136250Y-78165000D01*
X174526250Y-78165000D02*
X174225743Y-78165000D01*
D10*
G04 #@! TO.C,U1*
X192246250Y-54133750D02*
X174466250Y-54133750D01*
X192246250Y-23653750D02*
X192246250Y-54133750D01*
X187166250Y-23653750D02*
X192246250Y-23653750D01*
X187166250Y-21113750D02*
X187166250Y-23653750D01*
X179546250Y-21113750D02*
X187166250Y-21113750D01*
X179546250Y-23653750D02*
X179546250Y-21113750D01*
X174466250Y-23653750D02*
X179546250Y-23653750D01*
X174466250Y-23653750D02*
X174466250Y-54133750D01*
D11*
G04 #@! TO.C,RESET1*
X190900000Y-61737500D02*
X190900000Y-60237500D01*
X189650000Y-57737500D02*
X185150000Y-57737500D01*
X183900000Y-60237500D02*
X183900000Y-61737500D01*
X185150000Y-64237500D02*
X189650000Y-64237500D01*
G04 #@! TO.C,D16*
X162091250Y-94410000D02*
X162091250Y-91725000D01*
X160171250Y-94410000D02*
X162091250Y-94410000D01*
X160171250Y-91725000D02*
X160171250Y-94410000D01*
G04 #@! TO.C,D15*
X143041250Y-94410000D02*
X143041250Y-91725000D01*
X141121250Y-94410000D02*
X143041250Y-94410000D01*
X141121250Y-91725000D02*
X141121250Y-94410000D01*
G04 #@! TO.C,D14*
X123991250Y-94410000D02*
X123991250Y-91725000D01*
X122071250Y-94410000D02*
X123991250Y-94410000D01*
X122071250Y-91725000D02*
X122071250Y-94410000D01*
G04 #@! TO.C,D13*
X104941250Y-94410000D02*
X104941250Y-91725000D01*
X103021250Y-94410000D02*
X104941250Y-94410000D01*
X103021250Y-91725000D02*
X103021250Y-94410000D01*
G04 #@! TO.C,D12*
X162091250Y-75360000D02*
X162091250Y-72675000D01*
X160171250Y-75360000D02*
X162091250Y-75360000D01*
X160171250Y-72675000D02*
X160171250Y-75360000D01*
G04 #@! TO.C,D11*
X143041250Y-75503750D02*
X143041250Y-72818750D01*
X141121250Y-75503750D02*
X143041250Y-75503750D01*
X141121250Y-72818750D02*
X141121250Y-75503750D01*
G04 #@! TO.C,D10*
X123991250Y-75360000D02*
X123991250Y-72675000D01*
X122071250Y-75360000D02*
X123991250Y-75360000D01*
X122071250Y-72675000D02*
X122071250Y-75360000D01*
G04 #@! TO.C,D9*
X104941250Y-75360000D02*
X104941250Y-72675000D01*
X103021250Y-75360000D02*
X104941250Y-75360000D01*
X103021250Y-72675000D02*
X103021250Y-75360000D01*
G04 #@! TO.C,D8*
X162091250Y-56310000D02*
X162091250Y-53625000D01*
X160171250Y-56310000D02*
X162091250Y-56310000D01*
X160171250Y-53625000D02*
X160171250Y-56310000D01*
G04 #@! TO.C,D7*
X143041250Y-56310000D02*
X143041250Y-53625000D01*
X141121250Y-56310000D02*
X143041250Y-56310000D01*
X141121250Y-53625000D02*
X141121250Y-56310000D01*
G04 #@! TO.C,D6*
X123991250Y-56453750D02*
X123991250Y-53768750D01*
X122071250Y-56453750D02*
X123991250Y-56453750D01*
X122071250Y-53768750D02*
X122071250Y-56453750D01*
G04 #@! TO.C,D5*
X105735000Y-56310000D02*
X105735000Y-53625000D01*
X103815000Y-56310000D02*
X105735000Y-56310000D01*
X103815000Y-53625000D02*
X103815000Y-56310000D01*
G04 #@! TO.C,D4*
X162091250Y-37260000D02*
X162091250Y-34575000D01*
X160171250Y-37260000D02*
X162091250Y-37260000D01*
X160171250Y-34575000D02*
X160171250Y-37260000D01*
G04 #@! TO.C,D3*
X143041250Y-37260000D02*
X143041250Y-34575000D01*
X141121250Y-37260000D02*
X143041250Y-37260000D01*
X141121250Y-34575000D02*
X141121250Y-37260000D01*
G04 #@! TO.C,D2*
X123991250Y-37260000D02*
X123991250Y-34575000D01*
X122071250Y-37260000D02*
X123991250Y-37260000D01*
X122071250Y-34575000D02*
X122071250Y-37260000D01*
G04 #@! TO.C,D1*
X104941250Y-37260000D02*
X104941250Y-34575000D01*
X103021250Y-37260000D02*
X104941250Y-37260000D01*
X103021250Y-34575000D02*
X103021250Y-37260000D01*
G04 #@! TO.C,R1*
D10*
X182277083Y-57664880D02*
X181943750Y-57188690D01*
X181705654Y-57664880D02*
X181705654Y-56664880D01*
X182086607Y-56664880D01*
X182181845Y-56712500D01*
X182229464Y-56760119D01*
X182277083Y-56855357D01*
X182277083Y-56998214D01*
X182229464Y-57093452D01*
X182181845Y-57141071D01*
X182086607Y-57188690D01*
X181705654Y-57188690D01*
X183229464Y-57664880D02*
X182658035Y-57664880D01*
X182943750Y-57664880D02*
X182943750Y-56664880D01*
X182848511Y-56807738D01*
X182753273Y-56902976D01*
X182658035Y-56950595D01*
G04 #@! TO.C,MICROSD1*
X170283630Y-87737380D02*
X170283630Y-86737380D01*
X170616964Y-87451666D01*
X170950297Y-86737380D01*
X170950297Y-87737380D01*
X171426488Y-87737380D02*
X171426488Y-86737380D01*
X172474107Y-87642142D02*
X172426488Y-87689761D01*
X172283630Y-87737380D01*
X172188392Y-87737380D01*
X172045535Y-87689761D01*
X171950297Y-87594523D01*
X171902678Y-87499285D01*
X171855059Y-87308809D01*
X171855059Y-87165952D01*
X171902678Y-86975476D01*
X171950297Y-86880238D01*
X172045535Y-86785000D01*
X172188392Y-86737380D01*
X172283630Y-86737380D01*
X172426488Y-86785000D01*
X172474107Y-86832619D01*
X173474107Y-87737380D02*
X173140773Y-87261190D01*
X172902678Y-87737380D02*
X172902678Y-86737380D01*
X173283630Y-86737380D01*
X173378869Y-86785000D01*
X173426488Y-86832619D01*
X173474107Y-86927857D01*
X173474107Y-87070714D01*
X173426488Y-87165952D01*
X173378869Y-87213571D01*
X173283630Y-87261190D01*
X172902678Y-87261190D01*
X174093154Y-86737380D02*
X174283630Y-86737380D01*
X174378869Y-86785000D01*
X174474107Y-86880238D01*
X174521726Y-87070714D01*
X174521726Y-87404047D01*
X174474107Y-87594523D01*
X174378869Y-87689761D01*
X174283630Y-87737380D01*
X174093154Y-87737380D01*
X173997916Y-87689761D01*
X173902678Y-87594523D01*
X173855059Y-87404047D01*
X173855059Y-87070714D01*
X173902678Y-86880238D01*
X173997916Y-86785000D01*
X174093154Y-86737380D01*
X174902678Y-87689761D02*
X175045535Y-87737380D01*
X175283630Y-87737380D01*
X175378869Y-87689761D01*
X175426488Y-87642142D01*
X175474107Y-87546904D01*
X175474107Y-87451666D01*
X175426488Y-87356428D01*
X175378869Y-87308809D01*
X175283630Y-87261190D01*
X175093154Y-87213571D01*
X174997916Y-87165952D01*
X174950297Y-87118333D01*
X174902678Y-87023095D01*
X174902678Y-86927857D01*
X174950297Y-86832619D01*
X174997916Y-86785000D01*
X175093154Y-86737380D01*
X175331250Y-86737380D01*
X175474107Y-86785000D01*
X175902678Y-87737380D02*
X175902678Y-86737380D01*
X176140773Y-86737380D01*
X176283630Y-86785000D01*
X176378869Y-86880238D01*
X176426488Y-86975476D01*
X176474107Y-87165952D01*
X176474107Y-87308809D01*
X176426488Y-87499285D01*
X176378869Y-87594523D01*
X176283630Y-87689761D01*
X176140773Y-87737380D01*
X175902678Y-87737380D01*
X177426488Y-87737380D02*
X176855059Y-87737380D01*
X177140773Y-87737380D02*
X177140773Y-86737380D01*
X177045535Y-86880238D01*
X176950297Y-86975476D01*
X176855059Y-87023095D01*
G04 #@! TO.C,RESET1*
X185471428Y-57189880D02*
X185138095Y-56713690D01*
X184900000Y-57189880D02*
X184900000Y-56189880D01*
X185280952Y-56189880D01*
X185376190Y-56237500D01*
X185423809Y-56285119D01*
X185471428Y-56380357D01*
X185471428Y-56523214D01*
X185423809Y-56618452D01*
X185376190Y-56666071D01*
X185280952Y-56713690D01*
X184900000Y-56713690D01*
X185900000Y-56666071D02*
X186233333Y-56666071D01*
X186376190Y-57189880D02*
X185900000Y-57189880D01*
X185900000Y-56189880D01*
X186376190Y-56189880D01*
X186757142Y-57142261D02*
X186900000Y-57189880D01*
X187138095Y-57189880D01*
X187233333Y-57142261D01*
X187280952Y-57094642D01*
X187328571Y-56999404D01*
X187328571Y-56904166D01*
X187280952Y-56808928D01*
X187233333Y-56761309D01*
X187138095Y-56713690D01*
X186947619Y-56666071D01*
X186852380Y-56618452D01*
X186804761Y-56570833D01*
X186757142Y-56475595D01*
X186757142Y-56380357D01*
X186804761Y-56285119D01*
X186852380Y-56237500D01*
X186947619Y-56189880D01*
X187185714Y-56189880D01*
X187328571Y-56237500D01*
X187757142Y-56666071D02*
X188090476Y-56666071D01*
X188233333Y-57189880D02*
X187757142Y-57189880D01*
X187757142Y-56189880D01*
X188233333Y-56189880D01*
X188519047Y-56189880D02*
X189090476Y-56189880D01*
X188804761Y-57189880D02*
X188804761Y-56189880D01*
X189947619Y-57189880D02*
X189376190Y-57189880D01*
X189661904Y-57189880D02*
X189661904Y-56189880D01*
X189566666Y-56332738D01*
X189471428Y-56427976D01*
X189376190Y-56475595D01*
G04 #@! TO.C,D16*
X159933630Y-93939285D02*
X158933630Y-93939285D01*
X158933630Y-93701190D01*
X158981250Y-93558333D01*
X159076488Y-93463095D01*
X159171726Y-93415476D01*
X159362202Y-93367857D01*
X159505059Y-93367857D01*
X159695535Y-93415476D01*
X159790773Y-93463095D01*
X159886011Y-93558333D01*
X159933630Y-93701190D01*
X159933630Y-93939285D01*
X159933630Y-92415476D02*
X159933630Y-92986904D01*
X159933630Y-92701190D02*
X158933630Y-92701190D01*
X159076488Y-92796428D01*
X159171726Y-92891666D01*
X159219345Y-92986904D01*
X158933630Y-91558333D02*
X158933630Y-91748809D01*
X158981250Y-91844047D01*
X159028869Y-91891666D01*
X159171726Y-91986904D01*
X159362202Y-92034523D01*
X159743154Y-92034523D01*
X159838392Y-91986904D01*
X159886011Y-91939285D01*
X159933630Y-91844047D01*
X159933630Y-91653571D01*
X159886011Y-91558333D01*
X159838392Y-91510714D01*
X159743154Y-91463095D01*
X159505059Y-91463095D01*
X159409821Y-91510714D01*
X159362202Y-91558333D01*
X159314583Y-91653571D01*
X159314583Y-91844047D01*
X159362202Y-91939285D01*
X159409821Y-91986904D01*
X159505059Y-92034523D01*
G04 #@! TO.C,D15*
X140883630Y-93939285D02*
X139883630Y-93939285D01*
X139883630Y-93701190D01*
X139931250Y-93558333D01*
X140026488Y-93463095D01*
X140121726Y-93415476D01*
X140312202Y-93367857D01*
X140455059Y-93367857D01*
X140645535Y-93415476D01*
X140740773Y-93463095D01*
X140836011Y-93558333D01*
X140883630Y-93701190D01*
X140883630Y-93939285D01*
X140883630Y-92415476D02*
X140883630Y-92986904D01*
X140883630Y-92701190D02*
X139883630Y-92701190D01*
X140026488Y-92796428D01*
X140121726Y-92891666D01*
X140169345Y-92986904D01*
X139883630Y-91510714D02*
X139883630Y-91986904D01*
X140359821Y-92034523D01*
X140312202Y-91986904D01*
X140264583Y-91891666D01*
X140264583Y-91653571D01*
X140312202Y-91558333D01*
X140359821Y-91510714D01*
X140455059Y-91463095D01*
X140693154Y-91463095D01*
X140788392Y-91510714D01*
X140836011Y-91558333D01*
X140883630Y-91653571D01*
X140883630Y-91891666D01*
X140836011Y-91986904D01*
X140788392Y-92034523D01*
G04 #@! TO.C,D14*
X121833630Y-93939285D02*
X120833630Y-93939285D01*
X120833630Y-93701190D01*
X120881250Y-93558333D01*
X120976488Y-93463095D01*
X121071726Y-93415476D01*
X121262202Y-93367857D01*
X121405059Y-93367857D01*
X121595535Y-93415476D01*
X121690773Y-93463095D01*
X121786011Y-93558333D01*
X121833630Y-93701190D01*
X121833630Y-93939285D01*
X121833630Y-92415476D02*
X121833630Y-92986904D01*
X121833630Y-92701190D02*
X120833630Y-92701190D01*
X120976488Y-92796428D01*
X121071726Y-92891666D01*
X121119345Y-92986904D01*
X121166964Y-91558333D02*
X121833630Y-91558333D01*
X120786011Y-91796428D02*
X121500297Y-92034523D01*
X121500297Y-91415476D01*
G04 #@! TO.C,D13*
X102783630Y-93939285D02*
X101783630Y-93939285D01*
X101783630Y-93701190D01*
X101831250Y-93558333D01*
X101926488Y-93463095D01*
X102021726Y-93415476D01*
X102212202Y-93367857D01*
X102355059Y-93367857D01*
X102545535Y-93415476D01*
X102640773Y-93463095D01*
X102736011Y-93558333D01*
X102783630Y-93701190D01*
X102783630Y-93939285D01*
X102783630Y-92415476D02*
X102783630Y-92986904D01*
X102783630Y-92701190D02*
X101783630Y-92701190D01*
X101926488Y-92796428D01*
X102021726Y-92891666D01*
X102069345Y-92986904D01*
X101783630Y-92082142D02*
X101783630Y-91463095D01*
X102164583Y-91796428D01*
X102164583Y-91653571D01*
X102212202Y-91558333D01*
X102259821Y-91510714D01*
X102355059Y-91463095D01*
X102593154Y-91463095D01*
X102688392Y-91510714D01*
X102736011Y-91558333D01*
X102783630Y-91653571D01*
X102783630Y-91939285D01*
X102736011Y-92034523D01*
X102688392Y-92082142D01*
G04 #@! TO.C,D12*
X159933630Y-74889285D02*
X158933630Y-74889285D01*
X158933630Y-74651190D01*
X158981250Y-74508333D01*
X159076488Y-74413095D01*
X159171726Y-74365476D01*
X159362202Y-74317857D01*
X159505059Y-74317857D01*
X159695535Y-74365476D01*
X159790773Y-74413095D01*
X159886011Y-74508333D01*
X159933630Y-74651190D01*
X159933630Y-74889285D01*
X159933630Y-73365476D02*
X159933630Y-73936904D01*
X159933630Y-73651190D02*
X158933630Y-73651190D01*
X159076488Y-73746428D01*
X159171726Y-73841666D01*
X159219345Y-73936904D01*
X159028869Y-72984523D02*
X158981250Y-72936904D01*
X158933630Y-72841666D01*
X158933630Y-72603571D01*
X158981250Y-72508333D01*
X159028869Y-72460714D01*
X159124107Y-72413095D01*
X159219345Y-72413095D01*
X159362202Y-72460714D01*
X159933630Y-73032142D01*
X159933630Y-72413095D01*
G04 #@! TO.C,D11*
X140883630Y-75033035D02*
X139883630Y-75033035D01*
X139883630Y-74794940D01*
X139931250Y-74652083D01*
X140026488Y-74556845D01*
X140121726Y-74509226D01*
X140312202Y-74461607D01*
X140455059Y-74461607D01*
X140645535Y-74509226D01*
X140740773Y-74556845D01*
X140836011Y-74652083D01*
X140883630Y-74794940D01*
X140883630Y-75033035D01*
X140883630Y-73509226D02*
X140883630Y-74080654D01*
X140883630Y-73794940D02*
X139883630Y-73794940D01*
X140026488Y-73890178D01*
X140121726Y-73985416D01*
X140169345Y-74080654D01*
X140883630Y-72556845D02*
X140883630Y-73128273D01*
X140883630Y-72842559D02*
X139883630Y-72842559D01*
X140026488Y-72937797D01*
X140121726Y-73033035D01*
X140169345Y-73128273D01*
G04 #@! TO.C,D10*
X121833630Y-74889285D02*
X120833630Y-74889285D01*
X120833630Y-74651190D01*
X120881250Y-74508333D01*
X120976488Y-74413095D01*
X121071726Y-74365476D01*
X121262202Y-74317857D01*
X121405059Y-74317857D01*
X121595535Y-74365476D01*
X121690773Y-74413095D01*
X121786011Y-74508333D01*
X121833630Y-74651190D01*
X121833630Y-74889285D01*
X121833630Y-73365476D02*
X121833630Y-73936904D01*
X121833630Y-73651190D02*
X120833630Y-73651190D01*
X120976488Y-73746428D01*
X121071726Y-73841666D01*
X121119345Y-73936904D01*
X120833630Y-72746428D02*
X120833630Y-72651190D01*
X120881250Y-72555952D01*
X120928869Y-72508333D01*
X121024107Y-72460714D01*
X121214583Y-72413095D01*
X121452678Y-72413095D01*
X121643154Y-72460714D01*
X121738392Y-72508333D01*
X121786011Y-72555952D01*
X121833630Y-72651190D01*
X121833630Y-72746428D01*
X121786011Y-72841666D01*
X121738392Y-72889285D01*
X121643154Y-72936904D01*
X121452678Y-72984523D01*
X121214583Y-72984523D01*
X121024107Y-72936904D01*
X120928869Y-72889285D01*
X120881250Y-72841666D01*
X120833630Y-72746428D01*
G04 #@! TO.C,D9*
X102783630Y-74413095D02*
X101783630Y-74413095D01*
X101783630Y-74175000D01*
X101831250Y-74032142D01*
X101926488Y-73936904D01*
X102021726Y-73889285D01*
X102212202Y-73841666D01*
X102355059Y-73841666D01*
X102545535Y-73889285D01*
X102640773Y-73936904D01*
X102736011Y-74032142D01*
X102783630Y-74175000D01*
X102783630Y-74413095D01*
X102783630Y-73365476D02*
X102783630Y-73175000D01*
X102736011Y-73079761D01*
X102688392Y-73032142D01*
X102545535Y-72936904D01*
X102355059Y-72889285D01*
X101974107Y-72889285D01*
X101878869Y-72936904D01*
X101831250Y-72984523D01*
X101783630Y-73079761D01*
X101783630Y-73270238D01*
X101831250Y-73365476D01*
X101878869Y-73413095D01*
X101974107Y-73460714D01*
X102212202Y-73460714D01*
X102307440Y-73413095D01*
X102355059Y-73365476D01*
X102402678Y-73270238D01*
X102402678Y-73079761D01*
X102355059Y-72984523D01*
X102307440Y-72936904D01*
X102212202Y-72889285D01*
G04 #@! TO.C,D8*
X159933630Y-55363095D02*
X158933630Y-55363095D01*
X158933630Y-55125000D01*
X158981250Y-54982142D01*
X159076488Y-54886904D01*
X159171726Y-54839285D01*
X159362202Y-54791666D01*
X159505059Y-54791666D01*
X159695535Y-54839285D01*
X159790773Y-54886904D01*
X159886011Y-54982142D01*
X159933630Y-55125000D01*
X159933630Y-55363095D01*
X159362202Y-54220238D02*
X159314583Y-54315476D01*
X159266964Y-54363095D01*
X159171726Y-54410714D01*
X159124107Y-54410714D01*
X159028869Y-54363095D01*
X158981250Y-54315476D01*
X158933630Y-54220238D01*
X158933630Y-54029761D01*
X158981250Y-53934523D01*
X159028869Y-53886904D01*
X159124107Y-53839285D01*
X159171726Y-53839285D01*
X159266964Y-53886904D01*
X159314583Y-53934523D01*
X159362202Y-54029761D01*
X159362202Y-54220238D01*
X159409821Y-54315476D01*
X159457440Y-54363095D01*
X159552678Y-54410714D01*
X159743154Y-54410714D01*
X159838392Y-54363095D01*
X159886011Y-54315476D01*
X159933630Y-54220238D01*
X159933630Y-54029761D01*
X159886011Y-53934523D01*
X159838392Y-53886904D01*
X159743154Y-53839285D01*
X159552678Y-53839285D01*
X159457440Y-53886904D01*
X159409821Y-53934523D01*
X159362202Y-54029761D01*
G04 #@! TO.C,D7*
X140883630Y-55363095D02*
X139883630Y-55363095D01*
X139883630Y-55125000D01*
X139931250Y-54982142D01*
X140026488Y-54886904D01*
X140121726Y-54839285D01*
X140312202Y-54791666D01*
X140455059Y-54791666D01*
X140645535Y-54839285D01*
X140740773Y-54886904D01*
X140836011Y-54982142D01*
X140883630Y-55125000D01*
X140883630Y-55363095D01*
X139883630Y-54458333D02*
X139883630Y-53791666D01*
X140883630Y-54220238D01*
G04 #@! TO.C,D6*
X121833630Y-55506845D02*
X120833630Y-55506845D01*
X120833630Y-55268750D01*
X120881250Y-55125892D01*
X120976488Y-55030654D01*
X121071726Y-54983035D01*
X121262202Y-54935416D01*
X121405059Y-54935416D01*
X121595535Y-54983035D01*
X121690773Y-55030654D01*
X121786011Y-55125892D01*
X121833630Y-55268750D01*
X121833630Y-55506845D01*
X120833630Y-54078273D02*
X120833630Y-54268750D01*
X120881250Y-54363988D01*
X120928869Y-54411607D01*
X121071726Y-54506845D01*
X121262202Y-54554464D01*
X121643154Y-54554464D01*
X121738392Y-54506845D01*
X121786011Y-54459226D01*
X121833630Y-54363988D01*
X121833630Y-54173511D01*
X121786011Y-54078273D01*
X121738392Y-54030654D01*
X121643154Y-53983035D01*
X121405059Y-53983035D01*
X121309821Y-54030654D01*
X121262202Y-54078273D01*
X121214583Y-54173511D01*
X121214583Y-54363988D01*
X121262202Y-54459226D01*
X121309821Y-54506845D01*
X121405059Y-54554464D01*
G04 #@! TO.C,D5*
X103577380Y-55363095D02*
X102577380Y-55363095D01*
X102577380Y-55125000D01*
X102625000Y-54982142D01*
X102720238Y-54886904D01*
X102815476Y-54839285D01*
X103005952Y-54791666D01*
X103148809Y-54791666D01*
X103339285Y-54839285D01*
X103434523Y-54886904D01*
X103529761Y-54982142D01*
X103577380Y-55125000D01*
X103577380Y-55363095D01*
X102577380Y-53886904D02*
X102577380Y-54363095D01*
X103053571Y-54410714D01*
X103005952Y-54363095D01*
X102958333Y-54267857D01*
X102958333Y-54029761D01*
X103005952Y-53934523D01*
X103053571Y-53886904D01*
X103148809Y-53839285D01*
X103386904Y-53839285D01*
X103482142Y-53886904D01*
X103529761Y-53934523D01*
X103577380Y-54029761D01*
X103577380Y-54267857D01*
X103529761Y-54363095D01*
X103482142Y-54410714D01*
G04 #@! TO.C,D4*
X159933630Y-36313095D02*
X158933630Y-36313095D01*
X158933630Y-36075000D01*
X158981250Y-35932142D01*
X159076488Y-35836904D01*
X159171726Y-35789285D01*
X159362202Y-35741666D01*
X159505059Y-35741666D01*
X159695535Y-35789285D01*
X159790773Y-35836904D01*
X159886011Y-35932142D01*
X159933630Y-36075000D01*
X159933630Y-36313095D01*
X159266964Y-34884523D02*
X159933630Y-34884523D01*
X158886011Y-35122619D02*
X159600297Y-35360714D01*
X159600297Y-34741666D01*
G04 #@! TO.C,D3*
X140883630Y-36313095D02*
X139883630Y-36313095D01*
X139883630Y-36075000D01*
X139931250Y-35932142D01*
X140026488Y-35836904D01*
X140121726Y-35789285D01*
X140312202Y-35741666D01*
X140455059Y-35741666D01*
X140645535Y-35789285D01*
X140740773Y-35836904D01*
X140836011Y-35932142D01*
X140883630Y-36075000D01*
X140883630Y-36313095D01*
X139883630Y-35408333D02*
X139883630Y-34789285D01*
X140264583Y-35122619D01*
X140264583Y-34979761D01*
X140312202Y-34884523D01*
X140359821Y-34836904D01*
X140455059Y-34789285D01*
X140693154Y-34789285D01*
X140788392Y-34836904D01*
X140836011Y-34884523D01*
X140883630Y-34979761D01*
X140883630Y-35265476D01*
X140836011Y-35360714D01*
X140788392Y-35408333D01*
G04 #@! TO.C,D2*
X121833630Y-36313095D02*
X120833630Y-36313095D01*
X120833630Y-36075000D01*
X120881250Y-35932142D01*
X120976488Y-35836904D01*
X121071726Y-35789285D01*
X121262202Y-35741666D01*
X121405059Y-35741666D01*
X121595535Y-35789285D01*
X121690773Y-35836904D01*
X121786011Y-35932142D01*
X121833630Y-36075000D01*
X121833630Y-36313095D01*
X120928869Y-35360714D02*
X120881250Y-35313095D01*
X120833630Y-35217857D01*
X120833630Y-34979761D01*
X120881250Y-34884523D01*
X120928869Y-34836904D01*
X121024107Y-34789285D01*
X121119345Y-34789285D01*
X121262202Y-34836904D01*
X121833630Y-35408333D01*
X121833630Y-34789285D01*
G04 #@! TO.C,D1*
X102783630Y-36313095D02*
X101783630Y-36313095D01*
X101783630Y-36075000D01*
X101831250Y-35932142D01*
X101926488Y-35836904D01*
X102021726Y-35789285D01*
X102212202Y-35741666D01*
X102355059Y-35741666D01*
X102545535Y-35789285D01*
X102640773Y-35836904D01*
X102736011Y-35932142D01*
X102783630Y-36075000D01*
X102783630Y-36313095D01*
X102783630Y-34789285D02*
X102783630Y-35360714D01*
X102783630Y-35075000D02*
X101783630Y-35075000D01*
X101926488Y-35170238D01*
X102021726Y-35265476D01*
X102069345Y-35360714D01*
G04 #@! TD*
M02*
