G04 #@! TF.GenerationSoftware,KiCad,Pcbnew,(5.1.9-0-10_14)*
G04 #@! TF.CreationDate,2021-01-09T15:48:10-06:00*
G04 #@! TF.ProjectId,16-key,31362d6b-6579-42e6-9b69-6361645f7063,rev?*
G04 #@! TF.SameCoordinates,Original*
G04 #@! TF.FileFunction,Legend,Top*
G04 #@! TF.FilePolarity,Positive*
%FSLAX46Y46*%
G04 Gerber Fmt 4.6, Leading zero omitted, Abs format (unit mm)*
G04 Created by KiCad (PCBNEW (5.1.9-0-10_14)) date 2021-01-09 15:48:10*
%MOMM*%
%LPD*%
G01*
G04 APERTURE LIST*
%ADD10C,0.120000*%
%ADD11C,0.150000*%
G04 APERTURE END LIST*
D10*
G04 #@! TO.C,R1*
X182670814Y-56297500D02*
X182216686Y-56297500D01*
X182670814Y-54827500D02*
X182216686Y-54827500D01*
G04 #@! TO.C,MICROSD1*
X174526250Y-86410000D02*
X173831250Y-86410000D01*
X174526250Y-85725000D02*
X174526250Y-86410000D01*
X173222974Y-85040000D02*
X173136250Y-85040000D01*
X174526250Y-85040000D02*
X174439526Y-85040000D01*
X173136250Y-85040000D02*
X173136250Y-78165000D01*
X174526250Y-85040000D02*
X174526250Y-78165000D01*
X173436757Y-78165000D02*
X173136250Y-78165000D01*
X174526250Y-78165000D02*
X174225743Y-78165000D01*
D11*
G04 #@! TO.C,U1*
X192246250Y-54133750D02*
X174466250Y-54133750D01*
X192246250Y-23653750D02*
X192246250Y-54133750D01*
X187166250Y-23653750D02*
X192246250Y-23653750D01*
X187166250Y-21113750D02*
X187166250Y-23653750D01*
X179546250Y-21113750D02*
X187166250Y-21113750D01*
X179546250Y-23653750D02*
X179546250Y-21113750D01*
X174466250Y-23653750D02*
X179546250Y-23653750D01*
X174466250Y-23653750D02*
X174466250Y-54133750D01*
D10*
G04 #@! TO.C,RESET1*
X190900000Y-61737500D02*
X190900000Y-60237500D01*
X189650000Y-57737500D02*
X185150000Y-57737500D01*
X183900000Y-60237500D02*
X183900000Y-61737500D01*
X185150000Y-64237500D02*
X189650000Y-64237500D01*
G04 #@! TO.C,D16*
X162091250Y-94410000D02*
X162091250Y-91725000D01*
X160171250Y-94410000D02*
X162091250Y-94410000D01*
X160171250Y-91725000D02*
X160171250Y-94410000D01*
G04 #@! TO.C,D15*
X143041250Y-94410000D02*
X143041250Y-91725000D01*
X141121250Y-94410000D02*
X143041250Y-94410000D01*
X141121250Y-91725000D02*
X141121250Y-94410000D01*
G04 #@! TO.C,D14*
X123991250Y-94410000D02*
X123991250Y-91725000D01*
X122071250Y-94410000D02*
X123991250Y-94410000D01*
X122071250Y-91725000D02*
X122071250Y-94410000D01*
G04 #@! TO.C,D13*
X104941250Y-94410000D02*
X104941250Y-91725000D01*
X103021250Y-94410000D02*
X104941250Y-94410000D01*
X103021250Y-91725000D02*
X103021250Y-94410000D01*
G04 #@! TO.C,D12*
X162091250Y-75360000D02*
X162091250Y-72675000D01*
X160171250Y-75360000D02*
X162091250Y-75360000D01*
X160171250Y-72675000D02*
X160171250Y-75360000D01*
G04 #@! TO.C,D11*
X143041250Y-75503750D02*
X143041250Y-72818750D01*
X141121250Y-75503750D02*
X143041250Y-75503750D01*
X141121250Y-72818750D02*
X141121250Y-75503750D01*
G04 #@! TO.C,D10*
X123991250Y-75360000D02*
X123991250Y-72675000D01*
X122071250Y-75360000D02*
X123991250Y-75360000D01*
X122071250Y-72675000D02*
X122071250Y-75360000D01*
G04 #@! TO.C,D9*
X104941250Y-75360000D02*
X104941250Y-72675000D01*
X103021250Y-75360000D02*
X104941250Y-75360000D01*
X103021250Y-72675000D02*
X103021250Y-75360000D01*
G04 #@! TO.C,D8*
X162091250Y-56310000D02*
X162091250Y-53625000D01*
X160171250Y-56310000D02*
X162091250Y-56310000D01*
X160171250Y-53625000D02*
X160171250Y-56310000D01*
G04 #@! TO.C,D7*
X143041250Y-56310000D02*
X143041250Y-53625000D01*
X141121250Y-56310000D02*
X143041250Y-56310000D01*
X141121250Y-53625000D02*
X141121250Y-56310000D01*
G04 #@! TO.C,D6*
X123991250Y-56453750D02*
X123991250Y-53768750D01*
X122071250Y-56453750D02*
X123991250Y-56453750D01*
X122071250Y-53768750D02*
X122071250Y-56453750D01*
G04 #@! TO.C,D5*
X105735000Y-56310000D02*
X105735000Y-53625000D01*
X103815000Y-56310000D02*
X105735000Y-56310000D01*
X103815000Y-53625000D02*
X103815000Y-56310000D01*
G04 #@! TO.C,D4*
X162091250Y-37260000D02*
X162091250Y-34575000D01*
X160171250Y-37260000D02*
X162091250Y-37260000D01*
X160171250Y-34575000D02*
X160171250Y-37260000D01*
G04 #@! TO.C,D3*
X143041250Y-37260000D02*
X143041250Y-34575000D01*
X141121250Y-37260000D02*
X143041250Y-37260000D01*
X141121250Y-34575000D02*
X141121250Y-37260000D01*
G04 #@! TO.C,D2*
X123991250Y-37260000D02*
X123991250Y-34575000D01*
X122071250Y-37260000D02*
X123991250Y-37260000D01*
X122071250Y-34575000D02*
X122071250Y-37260000D01*
G04 #@! TO.C,D1*
X104941250Y-37260000D02*
X104941250Y-34575000D01*
X103021250Y-37260000D02*
X104941250Y-37260000D01*
X103021250Y-34575000D02*
X103021250Y-37260000D01*
G04 #@! TO.C,R1*
D11*
X182277083Y-57664880D02*
X181943750Y-57188690D01*
X181705654Y-57664880D02*
X181705654Y-56664880D01*
X182086607Y-56664880D01*
X182181845Y-56712500D01*
X182229464Y-56760119D01*
X182277083Y-56855357D01*
X182277083Y-56998214D01*
X182229464Y-57093452D01*
X182181845Y-57141071D01*
X182086607Y-57188690D01*
X181705654Y-57188690D01*
X183229464Y-57664880D02*
X182658035Y-57664880D01*
X182943750Y-57664880D02*
X182943750Y-56664880D01*
X182848511Y-56807738D01*
X182753273Y-56902976D01*
X182658035Y-56950595D01*
G04 #@! TO.C,MICROSD1*
X170283630Y-87737380D02*
X170283630Y-86737380D01*
X170616964Y-87451666D01*
X170950297Y-86737380D01*
X170950297Y-87737380D01*
X171426488Y-87737380D02*
X171426488Y-86737380D01*
X172474107Y-87642142D02*
X172426488Y-87689761D01*
X172283630Y-87737380D01*
X172188392Y-87737380D01*
X172045535Y-87689761D01*
X171950297Y-87594523D01*
X171902678Y-87499285D01*
X171855059Y-87308809D01*
X171855059Y-87165952D01*
X171902678Y-86975476D01*
X171950297Y-86880238D01*
X172045535Y-86785000D01*
X172188392Y-86737380D01*
X172283630Y-86737380D01*
X172426488Y-86785000D01*
X172474107Y-86832619D01*
X173474107Y-87737380D02*
X173140773Y-87261190D01*
X172902678Y-87737380D02*
X172902678Y-86737380D01*
X173283630Y-86737380D01*
X173378869Y-86785000D01*
X173426488Y-86832619D01*
X173474107Y-86927857D01*
X173474107Y-87070714D01*
X173426488Y-87165952D01*
X173378869Y-87213571D01*
X173283630Y-87261190D01*
X172902678Y-87261190D01*
X174093154Y-86737380D02*
X174283630Y-86737380D01*
X174378869Y-86785000D01*
X174474107Y-86880238D01*
X174521726Y-87070714D01*
X174521726Y-87404047D01*
X174474107Y-87594523D01*
X174378869Y-87689761D01*
X174283630Y-87737380D01*
X174093154Y-87737380D01*
X173997916Y-87689761D01*
X173902678Y-87594523D01*
X173855059Y-87404047D01*
X173855059Y-87070714D01*
X173902678Y-86880238D01*
X173997916Y-86785000D01*
X174093154Y-86737380D01*
X174902678Y-87689761D02*
X175045535Y-87737380D01*
X175283630Y-87737380D01*
X175378869Y-87689761D01*
X175426488Y-87642142D01*
X175474107Y-87546904D01*
X175474107Y-87451666D01*
X175426488Y-87356428D01*
X175378869Y-87308809D01*
X175283630Y-87261190D01*
X175093154Y-87213571D01*
X174997916Y-87165952D01*
X174950297Y-87118333D01*
X174902678Y-87023095D01*
X174902678Y-86927857D01*
X174950297Y-86832619D01*
X174997916Y-86785000D01*
X175093154Y-86737380D01*
X175331250Y-86737380D01*
X175474107Y-86785000D01*
X175902678Y-87737380D02*
X175902678Y-86737380D01*
X176140773Y-86737380D01*
X176283630Y-86785000D01*
X176378869Y-86880238D01*
X176426488Y-86975476D01*
X176474107Y-87165952D01*
X176474107Y-87308809D01*
X176426488Y-87499285D01*
X176378869Y-87594523D01*
X176283630Y-87689761D01*
X176140773Y-87737380D01*
X175902678Y-87737380D01*
X177426488Y-87737380D02*
X176855059Y-87737380D01*
X177140773Y-87737380D02*
X177140773Y-86737380D01*
X177045535Y-86880238D01*
X176950297Y-86975476D01*
X176855059Y-87023095D01*
G04 #@! TO.C,RESET1*
X185471428Y-57189880D02*
X185138095Y-56713690D01*
X184900000Y-57189880D02*
X184900000Y-56189880D01*
X185280952Y-56189880D01*
X185376190Y-56237500D01*
X185423809Y-56285119D01*
X185471428Y-56380357D01*
X185471428Y-56523214D01*
X185423809Y-56618452D01*
X185376190Y-56666071D01*
X185280952Y-56713690D01*
X184900000Y-56713690D01*
X185900000Y-56666071D02*
X186233333Y-56666071D01*
X186376190Y-57189880D02*
X185900000Y-57189880D01*
X185900000Y-56189880D01*
X186376190Y-56189880D01*
X186757142Y-57142261D02*
X186900000Y-57189880D01*
X187138095Y-57189880D01*
X187233333Y-57142261D01*
X187280952Y-57094642D01*
X187328571Y-56999404D01*
X187328571Y-56904166D01*
X187280952Y-56808928D01*
X187233333Y-56761309D01*
X187138095Y-56713690D01*
X186947619Y-56666071D01*
X186852380Y-56618452D01*
X186804761Y-56570833D01*
X186757142Y-56475595D01*
X186757142Y-56380357D01*
X186804761Y-56285119D01*
X186852380Y-56237500D01*
X186947619Y-56189880D01*
X187185714Y-56189880D01*
X187328571Y-56237500D01*
X187757142Y-56666071D02*
X188090476Y-56666071D01*
X188233333Y-57189880D02*
X187757142Y-57189880D01*
X187757142Y-56189880D01*
X188233333Y-56189880D01*
X188519047Y-56189880D02*
X189090476Y-56189880D01*
X188804761Y-57189880D02*
X188804761Y-56189880D01*
X189947619Y-57189880D02*
X189376190Y-57189880D01*
X189661904Y-57189880D02*
X189661904Y-56189880D01*
X189566666Y-56332738D01*
X189471428Y-56427976D01*
X189376190Y-56475595D01*
G04 #@! TO.C,D16*
X159933630Y-93939285D02*
X158933630Y-93939285D01*
X158933630Y-93701190D01*
X158981250Y-93558333D01*
X159076488Y-93463095D01*
X159171726Y-93415476D01*
X159362202Y-93367857D01*
X159505059Y-93367857D01*
X159695535Y-93415476D01*
X159790773Y-93463095D01*
X159886011Y-93558333D01*
X159933630Y-93701190D01*
X159933630Y-93939285D01*
X159933630Y-92415476D02*
X159933630Y-92986904D01*
X159933630Y-92701190D02*
X158933630Y-92701190D01*
X159076488Y-92796428D01*
X159171726Y-92891666D01*
X159219345Y-92986904D01*
X158933630Y-91558333D02*
X158933630Y-91748809D01*
X158981250Y-91844047D01*
X159028869Y-91891666D01*
X159171726Y-91986904D01*
X159362202Y-92034523D01*
X159743154Y-92034523D01*
X159838392Y-91986904D01*
X159886011Y-91939285D01*
X159933630Y-91844047D01*
X159933630Y-91653571D01*
X159886011Y-91558333D01*
X159838392Y-91510714D01*
X159743154Y-91463095D01*
X159505059Y-91463095D01*
X159409821Y-91510714D01*
X159362202Y-91558333D01*
X159314583Y-91653571D01*
X159314583Y-91844047D01*
X159362202Y-91939285D01*
X159409821Y-91986904D01*
X159505059Y-92034523D01*
G04 #@! TO.C,D15*
X140883630Y-93939285D02*
X139883630Y-93939285D01*
X139883630Y-93701190D01*
X139931250Y-93558333D01*
X140026488Y-93463095D01*
X140121726Y-93415476D01*
X140312202Y-93367857D01*
X140455059Y-93367857D01*
X140645535Y-93415476D01*
X140740773Y-93463095D01*
X140836011Y-93558333D01*
X140883630Y-93701190D01*
X140883630Y-93939285D01*
X140883630Y-92415476D02*
X140883630Y-92986904D01*
X140883630Y-92701190D02*
X139883630Y-92701190D01*
X140026488Y-92796428D01*
X140121726Y-92891666D01*
X140169345Y-92986904D01*
X139883630Y-91510714D02*
X139883630Y-91986904D01*
X140359821Y-92034523D01*
X140312202Y-91986904D01*
X140264583Y-91891666D01*
X140264583Y-91653571D01*
X140312202Y-91558333D01*
X140359821Y-91510714D01*
X140455059Y-91463095D01*
X140693154Y-91463095D01*
X140788392Y-91510714D01*
X140836011Y-91558333D01*
X140883630Y-91653571D01*
X140883630Y-91891666D01*
X140836011Y-91986904D01*
X140788392Y-92034523D01*
G04 #@! TO.C,D14*
X121833630Y-93939285D02*
X120833630Y-93939285D01*
X120833630Y-93701190D01*
X120881250Y-93558333D01*
X120976488Y-93463095D01*
X121071726Y-93415476D01*
X121262202Y-93367857D01*
X121405059Y-93367857D01*
X121595535Y-93415476D01*
X121690773Y-93463095D01*
X121786011Y-93558333D01*
X121833630Y-93701190D01*
X121833630Y-93939285D01*
X121833630Y-92415476D02*
X121833630Y-92986904D01*
X121833630Y-92701190D02*
X120833630Y-92701190D01*
X120976488Y-92796428D01*
X121071726Y-92891666D01*
X121119345Y-92986904D01*
X121166964Y-91558333D02*
X121833630Y-91558333D01*
X120786011Y-91796428D02*
X121500297Y-92034523D01*
X121500297Y-91415476D01*
G04 #@! TO.C,D13*
X102783630Y-93939285D02*
X101783630Y-93939285D01*
X101783630Y-93701190D01*
X101831250Y-93558333D01*
X101926488Y-93463095D01*
X102021726Y-93415476D01*
X102212202Y-93367857D01*
X102355059Y-93367857D01*
X102545535Y-93415476D01*
X102640773Y-93463095D01*
X102736011Y-93558333D01*
X102783630Y-93701190D01*
X102783630Y-93939285D01*
X102783630Y-92415476D02*
X102783630Y-92986904D01*
X102783630Y-92701190D02*
X101783630Y-92701190D01*
X101926488Y-92796428D01*
X102021726Y-92891666D01*
X102069345Y-92986904D01*
X101783630Y-92082142D02*
X101783630Y-91463095D01*
X102164583Y-91796428D01*
X102164583Y-91653571D01*
X102212202Y-91558333D01*
X102259821Y-91510714D01*
X102355059Y-91463095D01*
X102593154Y-91463095D01*
X102688392Y-91510714D01*
X102736011Y-91558333D01*
X102783630Y-91653571D01*
X102783630Y-91939285D01*
X102736011Y-92034523D01*
X102688392Y-92082142D01*
G04 #@! TO.C,D12*
X159933630Y-74889285D02*
X158933630Y-74889285D01*
X158933630Y-74651190D01*
X158981250Y-74508333D01*
X159076488Y-74413095D01*
X159171726Y-74365476D01*
X159362202Y-74317857D01*
X159505059Y-74317857D01*
X159695535Y-74365476D01*
X159790773Y-74413095D01*
X159886011Y-74508333D01*
X159933630Y-74651190D01*
X159933630Y-74889285D01*
X159933630Y-73365476D02*
X159933630Y-73936904D01*
X159933630Y-73651190D02*
X158933630Y-73651190D01*
X159076488Y-73746428D01*
X159171726Y-73841666D01*
X159219345Y-73936904D01*
X159028869Y-72984523D02*
X158981250Y-72936904D01*
X158933630Y-72841666D01*
X158933630Y-72603571D01*
X158981250Y-72508333D01*
X159028869Y-72460714D01*
X159124107Y-72413095D01*
X159219345Y-72413095D01*
X159362202Y-72460714D01*
X159933630Y-73032142D01*
X159933630Y-72413095D01*
G04 #@! TO.C,D11*
X140883630Y-75033035D02*
X139883630Y-75033035D01*
X139883630Y-74794940D01*
X139931250Y-74652083D01*
X140026488Y-74556845D01*
X140121726Y-74509226D01*
X140312202Y-74461607D01*
X140455059Y-74461607D01*
X140645535Y-74509226D01*
X140740773Y-74556845D01*
X140836011Y-74652083D01*
X140883630Y-74794940D01*
X140883630Y-75033035D01*
X140883630Y-73509226D02*
X140883630Y-74080654D01*
X140883630Y-73794940D02*
X139883630Y-73794940D01*
X140026488Y-73890178D01*
X140121726Y-73985416D01*
X140169345Y-74080654D01*
X140883630Y-72556845D02*
X140883630Y-73128273D01*
X140883630Y-72842559D02*
X139883630Y-72842559D01*
X140026488Y-72937797D01*
X140121726Y-73033035D01*
X140169345Y-73128273D01*
G04 #@! TO.C,D10*
X121833630Y-74889285D02*
X120833630Y-74889285D01*
X120833630Y-74651190D01*
X120881250Y-74508333D01*
X120976488Y-74413095D01*
X121071726Y-74365476D01*
X121262202Y-74317857D01*
X121405059Y-74317857D01*
X121595535Y-74365476D01*
X121690773Y-74413095D01*
X121786011Y-74508333D01*
X121833630Y-74651190D01*
X121833630Y-74889285D01*
X121833630Y-73365476D02*
X121833630Y-73936904D01*
X121833630Y-73651190D02*
X120833630Y-73651190D01*
X120976488Y-73746428D01*
X121071726Y-73841666D01*
X121119345Y-73936904D01*
X120833630Y-72746428D02*
X120833630Y-72651190D01*
X120881250Y-72555952D01*
X120928869Y-72508333D01*
X121024107Y-72460714D01*
X121214583Y-72413095D01*
X121452678Y-72413095D01*
X121643154Y-72460714D01*
X121738392Y-72508333D01*
X121786011Y-72555952D01*
X121833630Y-72651190D01*
X121833630Y-72746428D01*
X121786011Y-72841666D01*
X121738392Y-72889285D01*
X121643154Y-72936904D01*
X121452678Y-72984523D01*
X121214583Y-72984523D01*
X121024107Y-72936904D01*
X120928869Y-72889285D01*
X120881250Y-72841666D01*
X120833630Y-72746428D01*
G04 #@! TO.C,D9*
X102783630Y-74413095D02*
X101783630Y-74413095D01*
X101783630Y-74175000D01*
X101831250Y-74032142D01*
X101926488Y-73936904D01*
X102021726Y-73889285D01*
X102212202Y-73841666D01*
X102355059Y-73841666D01*
X102545535Y-73889285D01*
X102640773Y-73936904D01*
X102736011Y-74032142D01*
X102783630Y-74175000D01*
X102783630Y-74413095D01*
X102783630Y-73365476D02*
X102783630Y-73175000D01*
X102736011Y-73079761D01*
X102688392Y-73032142D01*
X102545535Y-72936904D01*
X102355059Y-72889285D01*
X101974107Y-72889285D01*
X101878869Y-72936904D01*
X101831250Y-72984523D01*
X101783630Y-73079761D01*
X101783630Y-73270238D01*
X101831250Y-73365476D01*
X101878869Y-73413095D01*
X101974107Y-73460714D01*
X102212202Y-73460714D01*
X102307440Y-73413095D01*
X102355059Y-73365476D01*
X102402678Y-73270238D01*
X102402678Y-73079761D01*
X102355059Y-72984523D01*
X102307440Y-72936904D01*
X102212202Y-72889285D01*
G04 #@! TO.C,D8*
X159933630Y-55363095D02*
X158933630Y-55363095D01*
X158933630Y-55125000D01*
X158981250Y-54982142D01*
X159076488Y-54886904D01*
X159171726Y-54839285D01*
X159362202Y-54791666D01*
X159505059Y-54791666D01*
X159695535Y-54839285D01*
X159790773Y-54886904D01*
X159886011Y-54982142D01*
X159933630Y-55125000D01*
X159933630Y-55363095D01*
X159362202Y-54220238D02*
X159314583Y-54315476D01*
X159266964Y-54363095D01*
X159171726Y-54410714D01*
X159124107Y-54410714D01*
X159028869Y-54363095D01*
X158981250Y-54315476D01*
X158933630Y-54220238D01*
X158933630Y-54029761D01*
X158981250Y-53934523D01*
X159028869Y-53886904D01*
X159124107Y-53839285D01*
X159171726Y-53839285D01*
X159266964Y-53886904D01*
X159314583Y-53934523D01*
X159362202Y-54029761D01*
X159362202Y-54220238D01*
X159409821Y-54315476D01*
X159457440Y-54363095D01*
X159552678Y-54410714D01*
X159743154Y-54410714D01*
X159838392Y-54363095D01*
X159886011Y-54315476D01*
X159933630Y-54220238D01*
X159933630Y-54029761D01*
X159886011Y-53934523D01*
X159838392Y-53886904D01*
X159743154Y-53839285D01*
X159552678Y-53839285D01*
X159457440Y-53886904D01*
X159409821Y-53934523D01*
X159362202Y-54029761D01*
G04 #@! TO.C,D7*
X140883630Y-55363095D02*
X139883630Y-55363095D01*
X139883630Y-55125000D01*
X139931250Y-54982142D01*
X140026488Y-54886904D01*
X140121726Y-54839285D01*
X140312202Y-54791666D01*
X140455059Y-54791666D01*
X140645535Y-54839285D01*
X140740773Y-54886904D01*
X140836011Y-54982142D01*
X140883630Y-55125000D01*
X140883630Y-55363095D01*
X139883630Y-54458333D02*
X139883630Y-53791666D01*
X140883630Y-54220238D01*
G04 #@! TO.C,D6*
X121833630Y-55506845D02*
X120833630Y-55506845D01*
X120833630Y-55268750D01*
X120881250Y-55125892D01*
X120976488Y-55030654D01*
X121071726Y-54983035D01*
X121262202Y-54935416D01*
X121405059Y-54935416D01*
X121595535Y-54983035D01*
X121690773Y-55030654D01*
X121786011Y-55125892D01*
X121833630Y-55268750D01*
X121833630Y-55506845D01*
X120833630Y-54078273D02*
X120833630Y-54268750D01*
X120881250Y-54363988D01*
X120928869Y-54411607D01*
X121071726Y-54506845D01*
X121262202Y-54554464D01*
X121643154Y-54554464D01*
X121738392Y-54506845D01*
X121786011Y-54459226D01*
X121833630Y-54363988D01*
X121833630Y-54173511D01*
X121786011Y-54078273D01*
X121738392Y-54030654D01*
X121643154Y-53983035D01*
X121405059Y-53983035D01*
X121309821Y-54030654D01*
X121262202Y-54078273D01*
X121214583Y-54173511D01*
X121214583Y-54363988D01*
X121262202Y-54459226D01*
X121309821Y-54506845D01*
X121405059Y-54554464D01*
G04 #@! TO.C,D5*
X103577380Y-55363095D02*
X102577380Y-55363095D01*
X102577380Y-55125000D01*
X102625000Y-54982142D01*
X102720238Y-54886904D01*
X102815476Y-54839285D01*
X103005952Y-54791666D01*
X103148809Y-54791666D01*
X103339285Y-54839285D01*
X103434523Y-54886904D01*
X103529761Y-54982142D01*
X103577380Y-55125000D01*
X103577380Y-55363095D01*
X102577380Y-53886904D02*
X102577380Y-54363095D01*
X103053571Y-54410714D01*
X103005952Y-54363095D01*
X102958333Y-54267857D01*
X102958333Y-54029761D01*
X103005952Y-53934523D01*
X103053571Y-53886904D01*
X103148809Y-53839285D01*
X103386904Y-53839285D01*
X103482142Y-53886904D01*
X103529761Y-53934523D01*
X103577380Y-54029761D01*
X103577380Y-54267857D01*
X103529761Y-54363095D01*
X103482142Y-54410714D01*
G04 #@! TO.C,D4*
X159933630Y-36313095D02*
X158933630Y-36313095D01*
X158933630Y-36075000D01*
X158981250Y-35932142D01*
X159076488Y-35836904D01*
X159171726Y-35789285D01*
X159362202Y-35741666D01*
X159505059Y-35741666D01*
X159695535Y-35789285D01*
X159790773Y-35836904D01*
X159886011Y-35932142D01*
X159933630Y-36075000D01*
X159933630Y-36313095D01*
X159266964Y-34884523D02*
X159933630Y-34884523D01*
X158886011Y-35122619D02*
X159600297Y-35360714D01*
X159600297Y-34741666D01*
G04 #@! TO.C,D3*
X140883630Y-36313095D02*
X139883630Y-36313095D01*
X139883630Y-36075000D01*
X139931250Y-35932142D01*
X140026488Y-35836904D01*
X140121726Y-35789285D01*
X140312202Y-35741666D01*
X140455059Y-35741666D01*
X140645535Y-35789285D01*
X140740773Y-35836904D01*
X140836011Y-35932142D01*
X140883630Y-36075000D01*
X140883630Y-36313095D01*
X139883630Y-35408333D02*
X139883630Y-34789285D01*
X140264583Y-35122619D01*
X140264583Y-34979761D01*
X140312202Y-34884523D01*
X140359821Y-34836904D01*
X140455059Y-34789285D01*
X140693154Y-34789285D01*
X140788392Y-34836904D01*
X140836011Y-34884523D01*
X140883630Y-34979761D01*
X140883630Y-35265476D01*
X140836011Y-35360714D01*
X140788392Y-35408333D01*
G04 #@! TO.C,D2*
X121833630Y-36313095D02*
X120833630Y-36313095D01*
X120833630Y-36075000D01*
X120881250Y-35932142D01*
X120976488Y-35836904D01*
X121071726Y-35789285D01*
X121262202Y-35741666D01*
X121405059Y-35741666D01*
X121595535Y-35789285D01*
X121690773Y-35836904D01*
X121786011Y-35932142D01*
X121833630Y-36075000D01*
X121833630Y-36313095D01*
X120928869Y-35360714D02*
X120881250Y-35313095D01*
X120833630Y-35217857D01*
X120833630Y-34979761D01*
X120881250Y-34884523D01*
X120928869Y-34836904D01*
X121024107Y-34789285D01*
X121119345Y-34789285D01*
X121262202Y-34836904D01*
X121833630Y-35408333D01*
X121833630Y-34789285D01*
G04 #@! TO.C,D1*
X102783630Y-36313095D02*
X101783630Y-36313095D01*
X101783630Y-36075000D01*
X101831250Y-35932142D01*
X101926488Y-35836904D01*
X102021726Y-35789285D01*
X102212202Y-35741666D01*
X102355059Y-35741666D01*
X102545535Y-35789285D01*
X102640773Y-35836904D01*
X102736011Y-35932142D01*
X102783630Y-36075000D01*
X102783630Y-36313095D01*
X102783630Y-34789285D02*
X102783630Y-35360714D01*
X102783630Y-35075000D02*
X101783630Y-35075000D01*
X101926488Y-35170238D01*
X102021726Y-35265476D01*
X102069345Y-35360714D01*
G04 #@! TD*
M02*
