M48
; DRILL file {KiCad (5.1.9-0-10_14)} date Saturday, January 09, 2021 at 04:16:38 PM
; FORMAT={-:-/ absolute / inch / decimal}
; #@! TF.CreationDate,2021-01-09T16:16:38-06:00
; #@! TF.GenerationSoftware,Kicad,Pcbnew,(5.1.9-0-10_14)
; #@! TF.FileFunction,Plated,1,2,PTH
FMAT,2
INCH
T1C0.0197
T2C0.0433
T3C0.0579
T4C0.1260
%
G90
G05
T1
X6.8438Y-3.0994
X6.8438Y-3.1388
X6.8438Y-3.1781
X6.8438Y-3.2175
X6.8438Y-3.2569
X6.8438Y-3.2963
X6.8438Y-3.3356
X6.8438Y-3.375
T2
X6.9188Y-0.9812
X6.9188Y-1.0813
X6.9188Y-1.1812
X6.9188Y-1.2812
X6.9188Y-1.3812
X6.9188Y-1.4812
X6.9188Y-1.5813
X6.9188Y-1.6812
X6.9188Y-1.7812
X6.9188Y-1.8812
X6.9188Y-1.9812
X6.9188Y-2.0812
X7.25Y-2.3125
X7.25Y-2.4897
X7.5059Y-2.3125
X7.5059Y-2.4897
X7.5187Y-0.9812
X7.5187Y-1.0813
X7.5187Y-1.1812
X7.5187Y-1.2812
X7.5187Y-1.3812
X7.5187Y-1.4812
X7.5187Y-1.5813
X7.5187Y-1.6812
X7.5187Y-1.7812
X7.5187Y-1.8812
X7.5187Y-1.9812
X7.5187Y-2.0812
T3
X3.6313Y-1.2125
X3.6313Y-1.9625
X3.6313Y-2.7125
X3.6313Y-3.4625
X3.8813Y-1.1125
X3.8813Y-1.8625
X3.8813Y-2.6125
X3.8813Y-3.3625
X4.3812Y-1.2125
X4.3812Y-1.9625
X4.3812Y-2.7125
X4.3812Y-3.4625
X4.6312Y-1.1125
X4.6312Y-1.8625
X4.6312Y-2.6125
X4.6312Y-3.3625
X5.1312Y-1.2125
X5.1312Y-1.9625
X5.1312Y-2.7125
X5.1312Y-3.4625
X5.3812Y-1.1125
X5.3812Y-1.8625
X5.3812Y-2.6125
X5.3812Y-3.3625
X5.8812Y-1.2125
X5.8812Y-1.9625
X5.8812Y-2.7125
X5.8812Y-3.4625
X6.1312Y-1.1125
X6.1312Y-1.8625
X6.1312Y-2.6125
X6.1312Y-3.3625
T4
X3.5Y-1.0312
X3.5Y-3.8438
X6.6562Y-1.1562
X7.0938Y-3.6562
T0
M30
