G04 #@! TF.GenerationSoftware,KiCad,Pcbnew,(5.1.9-0-10_14)*
G04 #@! TF.CreationDate,2021-01-09T15:36:32-06:00*
G04 #@! TF.ProjectId,16-key,31362d6b-6579-42e6-9b69-6361645f7063,rev?*
G04 #@! TF.SameCoordinates,Original*
G04 #@! TF.FileFunction,OtherDrawing,Comment*
%FSLAX46Y46*%
G04 Gerber Fmt 4.6, Leading zero omitted, Abs format (unit mm)*
G04 Created by KiCad (PCBNEW (5.1.9-0-10_14)) date 2021-01-09 15:36:32*
%MOMM*%
%LPD*%
G01*
G04 APERTURE LIST*
%ADD10C,0.150000*%
G04 APERTURE END LIST*
D10*
X175435714Y-101211011D02*
X175340476Y-101258630D01*
X175150000Y-101258630D01*
X175054761Y-101211011D01*
X175007142Y-101163392D01*
X174959523Y-101068154D01*
X174959523Y-100782440D01*
X175007142Y-100687202D01*
X175054761Y-100639583D01*
X175150000Y-100591964D01*
X175340476Y-100591964D01*
X175435714Y-100639583D01*
X176007142Y-101258630D02*
X175911904Y-101211011D01*
X175864285Y-101115773D01*
X175864285Y-100258630D01*
X176292857Y-100591964D02*
X176483333Y-101258630D01*
X176673809Y-100782440D01*
X176864285Y-101258630D01*
X177054761Y-100591964D01*
X178150000Y-100353869D02*
X178197619Y-100306250D01*
X178292857Y-100258630D01*
X178530952Y-100258630D01*
X178626190Y-100306250D01*
X178673809Y-100353869D01*
X178721428Y-100449107D01*
X178721428Y-100544345D01*
X178673809Y-100687202D01*
X178102380Y-101258630D01*
X178721428Y-101258630D01*
X179340476Y-100258630D02*
X179435714Y-100258630D01*
X179530952Y-100306250D01*
X179578571Y-100353869D01*
X179626190Y-100449107D01*
X179673809Y-100639583D01*
X179673809Y-100877678D01*
X179626190Y-101068154D01*
X179578571Y-101163392D01*
X179530952Y-101211011D01*
X179435714Y-101258630D01*
X179340476Y-101258630D01*
X179245238Y-101211011D01*
X179197619Y-101163392D01*
X179150000Y-101068154D01*
X179102380Y-100877678D01*
X179102380Y-100639583D01*
X179150000Y-100449107D01*
X179197619Y-100353869D01*
X179245238Y-100306250D01*
X179340476Y-100258630D01*
X180054761Y-100353869D02*
X180102380Y-100306250D01*
X180197619Y-100258630D01*
X180435714Y-100258630D01*
X180530952Y-100306250D01*
X180578571Y-100353869D01*
X180626190Y-100449107D01*
X180626190Y-100544345D01*
X180578571Y-100687202D01*
X180007142Y-101258630D01*
X180626190Y-101258630D01*
X181245238Y-100258630D02*
X181340476Y-100258630D01*
X181435714Y-100306250D01*
X181483333Y-100353869D01*
X181530952Y-100449107D01*
X181578571Y-100639583D01*
X181578571Y-100877678D01*
X181530952Y-101068154D01*
X181483333Y-101163392D01*
X181435714Y-101211011D01*
X181340476Y-101258630D01*
X181245238Y-101258630D01*
X181150000Y-101211011D01*
X181102380Y-101163392D01*
X181054761Y-101068154D01*
X181007142Y-100877678D01*
X181007142Y-100639583D01*
X181054761Y-100449107D01*
X181102380Y-100353869D01*
X181150000Y-100306250D01*
X181245238Y-100258630D01*
X182007142Y-100877678D02*
X182769047Y-100877678D01*
X183435714Y-100258630D02*
X183530952Y-100258630D01*
X183626190Y-100306250D01*
X183673809Y-100353869D01*
X183721428Y-100449107D01*
X183769047Y-100639583D01*
X183769047Y-100877678D01*
X183721428Y-101068154D01*
X183673809Y-101163392D01*
X183626190Y-101211011D01*
X183530952Y-101258630D01*
X183435714Y-101258630D01*
X183340476Y-101211011D01*
X183292857Y-101163392D01*
X183245238Y-101068154D01*
X183197619Y-100877678D01*
X183197619Y-100639583D01*
X183245238Y-100449107D01*
X183292857Y-100353869D01*
X183340476Y-100306250D01*
X183435714Y-100258630D01*
X184721428Y-101258630D02*
X184150000Y-101258630D01*
X184435714Y-101258630D02*
X184435714Y-100258630D01*
X184340476Y-100401488D01*
X184245238Y-100496726D01*
X184150000Y-100544345D01*
X185150000Y-100877678D02*
X185911904Y-100877678D01*
X186578571Y-100258630D02*
X186673809Y-100258630D01*
X186769047Y-100306250D01*
X186816666Y-100353869D01*
X186864285Y-100449107D01*
X186911904Y-100639583D01*
X186911904Y-100877678D01*
X186864285Y-101068154D01*
X186816666Y-101163392D01*
X186769047Y-101211011D01*
X186673809Y-101258630D01*
X186578571Y-101258630D01*
X186483333Y-101211011D01*
X186435714Y-101163392D01*
X186388095Y-101068154D01*
X186340476Y-100877678D01*
X186340476Y-100639583D01*
X186388095Y-100449107D01*
X186435714Y-100353869D01*
X186483333Y-100306250D01*
X186578571Y-100258630D01*
X187388095Y-101258630D02*
X187578571Y-101258630D01*
X187673809Y-101211011D01*
X187721428Y-101163392D01*
X187816666Y-101020535D01*
X187864285Y-100830059D01*
X187864285Y-100449107D01*
X187816666Y-100353869D01*
X187769047Y-100306250D01*
X187673809Y-100258630D01*
X187483333Y-100258630D01*
X187388095Y-100306250D01*
X187340476Y-100353869D01*
X187292857Y-100449107D01*
X187292857Y-100687202D01*
X187340476Y-100782440D01*
X187388095Y-100830059D01*
X187483333Y-100877678D01*
X187673809Y-100877678D01*
X187769047Y-100830059D01*
X187816666Y-100782440D01*
X187864285Y-100687202D01*
X189626190Y-101258630D02*
X189292857Y-100782440D01*
X189054761Y-101258630D02*
X189054761Y-100258630D01*
X189435714Y-100258630D01*
X189530952Y-100306250D01*
X189578571Y-100353869D01*
X189626190Y-100449107D01*
X189626190Y-100591964D01*
X189578571Y-100687202D01*
X189530952Y-100734821D01*
X189435714Y-100782440D01*
X189054761Y-100782440D01*
X190435714Y-101211011D02*
X190340476Y-101258630D01*
X190150000Y-101258630D01*
X190054761Y-101211011D01*
X190007142Y-101115773D01*
X190007142Y-100734821D01*
X190054761Y-100639583D01*
X190150000Y-100591964D01*
X190340476Y-100591964D01*
X190435714Y-100639583D01*
X190483333Y-100734821D01*
X190483333Y-100830059D01*
X190007142Y-100925297D01*
X190816666Y-100591964D02*
X191054761Y-101258630D01*
X191292857Y-100591964D01*
X191673809Y-101163392D02*
X191721428Y-101211011D01*
X191673809Y-101258630D01*
X191626190Y-101211011D01*
X191673809Y-101163392D01*
X191673809Y-101258630D01*
X192864285Y-100972916D02*
X193340476Y-100972916D01*
X192769047Y-101258630D02*
X193102380Y-100258630D01*
X193435714Y-101258630D01*
X176364583Y-82478571D02*
X176031250Y-82478571D01*
X176031250Y-83002380D02*
X176031250Y-82002380D01*
X176507440Y-82002380D01*
X177316964Y-82335714D02*
X177316964Y-83002380D01*
X176888392Y-82335714D02*
X176888392Y-82859523D01*
X176936011Y-82954761D01*
X177031250Y-83002380D01*
X177174107Y-83002380D01*
X177269345Y-82954761D01*
X177316964Y-82907142D01*
X177650297Y-82335714D02*
X178031250Y-82335714D01*
X177793154Y-82002380D02*
X177793154Y-82859523D01*
X177840773Y-82954761D01*
X177936011Y-83002380D01*
X178031250Y-83002380D01*
X178793154Y-82335714D02*
X178793154Y-83002380D01*
X178364583Y-82335714D02*
X178364583Y-82859523D01*
X178412202Y-82954761D01*
X178507440Y-83002380D01*
X178650297Y-83002380D01*
X178745535Y-82954761D01*
X178793154Y-82907142D01*
X179269345Y-83002380D02*
X179269345Y-82335714D01*
X179269345Y-82526190D02*
X179316964Y-82430952D01*
X179364583Y-82383333D01*
X179459821Y-82335714D01*
X179555059Y-82335714D01*
X180269345Y-82954761D02*
X180174107Y-83002380D01*
X179983630Y-83002380D01*
X179888392Y-82954761D01*
X179840773Y-82859523D01*
X179840773Y-82478571D01*
X179888392Y-82383333D01*
X179983630Y-82335714D01*
X180174107Y-82335714D01*
X180269345Y-82383333D01*
X180316964Y-82478571D01*
X180316964Y-82573809D01*
X179840773Y-82669047D01*
X181507440Y-83002380D02*
X181507440Y-82002380D01*
X181840773Y-82716666D01*
X182174107Y-82002380D01*
X182174107Y-83002380D01*
X182650297Y-83002380D02*
X182650297Y-82335714D01*
X182650297Y-82002380D02*
X182602678Y-82050000D01*
X182650297Y-82097619D01*
X182697916Y-82050000D01*
X182650297Y-82002380D01*
X182650297Y-82097619D01*
X183555059Y-82954761D02*
X183459821Y-83002380D01*
X183269345Y-83002380D01*
X183174107Y-82954761D01*
X183126488Y-82907142D01*
X183078869Y-82811904D01*
X183078869Y-82526190D01*
X183126488Y-82430952D01*
X183174107Y-82383333D01*
X183269345Y-82335714D01*
X183459821Y-82335714D01*
X183555059Y-82383333D01*
X183983630Y-83002380D02*
X183983630Y-82335714D01*
X183983630Y-82526190D02*
X184031250Y-82430952D01*
X184078869Y-82383333D01*
X184174107Y-82335714D01*
X184269345Y-82335714D01*
X184745535Y-83002380D02*
X184650297Y-82954761D01*
X184602678Y-82907142D01*
X184555059Y-82811904D01*
X184555059Y-82526190D01*
X184602678Y-82430952D01*
X184650297Y-82383333D01*
X184745535Y-82335714D01*
X184888392Y-82335714D01*
X184983630Y-82383333D01*
X185031250Y-82430952D01*
X185078869Y-82526190D01*
X185078869Y-82811904D01*
X185031250Y-82907142D01*
X184983630Y-82954761D01*
X184888392Y-83002380D01*
X184745535Y-83002380D01*
X186221726Y-82954761D02*
X186364583Y-83002380D01*
X186602678Y-83002380D01*
X186697916Y-82954761D01*
X186745535Y-82907142D01*
X186793154Y-82811904D01*
X186793154Y-82716666D01*
X186745535Y-82621428D01*
X186697916Y-82573809D01*
X186602678Y-82526190D01*
X186412202Y-82478571D01*
X186316964Y-82430952D01*
X186269345Y-82383333D01*
X186221726Y-82288095D01*
X186221726Y-82192857D01*
X186269345Y-82097619D01*
X186316964Y-82050000D01*
X186412202Y-82002380D01*
X186650297Y-82002380D01*
X186793154Y-82050000D01*
X187221726Y-83002380D02*
X187221726Y-82002380D01*
X187459821Y-82002380D01*
X187602678Y-82050000D01*
X187697916Y-82145238D01*
X187745535Y-82240476D01*
X187793154Y-82430952D01*
X187793154Y-82573809D01*
X187745535Y-82764285D01*
X187697916Y-82859523D01*
X187602678Y-82954761D01*
X187459821Y-83002380D01*
X187221726Y-83002380D01*
X189555059Y-82907142D02*
X189507440Y-82954761D01*
X189364583Y-83002380D01*
X189269345Y-83002380D01*
X189126488Y-82954761D01*
X189031250Y-82859523D01*
X188983630Y-82764285D01*
X188936011Y-82573809D01*
X188936011Y-82430952D01*
X188983630Y-82240476D01*
X189031250Y-82145238D01*
X189126488Y-82050000D01*
X189269345Y-82002380D01*
X189364583Y-82002380D01*
X189507440Y-82050000D01*
X189555059Y-82097619D01*
X190412202Y-83002380D02*
X190412202Y-82478571D01*
X190364583Y-82383333D01*
X190269345Y-82335714D01*
X190078869Y-82335714D01*
X189983630Y-82383333D01*
X190412202Y-82954761D02*
X190316964Y-83002380D01*
X190078869Y-83002380D01*
X189983630Y-82954761D01*
X189936011Y-82859523D01*
X189936011Y-82764285D01*
X189983630Y-82669047D01*
X190078869Y-82621428D01*
X190316964Y-82621428D01*
X190412202Y-82573809D01*
X190888392Y-83002380D02*
X190888392Y-82335714D01*
X190888392Y-82526190D02*
X190936011Y-82430952D01*
X190983630Y-82383333D01*
X191078869Y-82335714D01*
X191174107Y-82335714D01*
X191936011Y-83002380D02*
X191936011Y-82002380D01*
X191936011Y-82954761D02*
X191840773Y-83002380D01*
X191650297Y-83002380D01*
X191555059Y-82954761D01*
X191507440Y-82907142D01*
X191459821Y-82811904D01*
X191459821Y-82526190D01*
X191507440Y-82430952D01*
X191555059Y-82383333D01*
X191650297Y-82335714D01*
X191840773Y-82335714D01*
X191936011Y-82383333D01*
X193507440Y-82478571D02*
X193650297Y-82526190D01*
X193697916Y-82573809D01*
X193745535Y-82669047D01*
X193745535Y-82811904D01*
X193697916Y-82907142D01*
X193650297Y-82954761D01*
X193555059Y-83002380D01*
X193174107Y-83002380D01*
X193174107Y-82002380D01*
X193507440Y-82002380D01*
X193602678Y-82050000D01*
X193650297Y-82097619D01*
X193697916Y-82192857D01*
X193697916Y-82288095D01*
X193650297Y-82383333D01*
X193602678Y-82430952D01*
X193507440Y-82478571D01*
X193174107Y-82478571D01*
X194316964Y-83002380D02*
X194221726Y-82954761D01*
X194174107Y-82907142D01*
X194126488Y-82811904D01*
X194126488Y-82526190D01*
X194174107Y-82430952D01*
X194221726Y-82383333D01*
X194316964Y-82335714D01*
X194459821Y-82335714D01*
X194555059Y-82383333D01*
X194602678Y-82430952D01*
X194650297Y-82526190D01*
X194650297Y-82811904D01*
X194602678Y-82907142D01*
X194555059Y-82954761D01*
X194459821Y-83002380D01*
X194316964Y-83002380D01*
X195507440Y-83002380D02*
X195507440Y-82478571D01*
X195459821Y-82383333D01*
X195364583Y-82335714D01*
X195174107Y-82335714D01*
X195078869Y-82383333D01*
X195507440Y-82954761D02*
X195412202Y-83002380D01*
X195174107Y-83002380D01*
X195078869Y-82954761D01*
X195031250Y-82859523D01*
X195031250Y-82764285D01*
X195078869Y-82669047D01*
X195174107Y-82621428D01*
X195412202Y-82621428D01*
X195507440Y-82573809D01*
X195983630Y-83002380D02*
X195983630Y-82335714D01*
X195983630Y-82526190D02*
X196031250Y-82430952D01*
X196078869Y-82383333D01*
X196174107Y-82335714D01*
X196269345Y-82335714D01*
X197031250Y-83002380D02*
X197031250Y-82002380D01*
X197031250Y-82954761D02*
X196936011Y-83002380D01*
X196745535Y-83002380D01*
X196650297Y-82954761D01*
X196602678Y-82907142D01*
X196555059Y-82811904D01*
X196555059Y-82526190D01*
X196602678Y-82430952D01*
X196650297Y-82383333D01*
X196745535Y-82335714D01*
X196936011Y-82335714D01*
X197031250Y-82383333D01*
X169330952Y-99671130D02*
X168759523Y-99671130D01*
X169045238Y-99671130D02*
X169045238Y-98671130D01*
X168950000Y-98813988D01*
X168854761Y-98909226D01*
X168759523Y-98956845D01*
X170188095Y-98671130D02*
X169997619Y-98671130D01*
X169902380Y-98718750D01*
X169854761Y-98766369D01*
X169759523Y-98909226D01*
X169711904Y-99099702D01*
X169711904Y-99480654D01*
X169759523Y-99575892D01*
X169807142Y-99623511D01*
X169902380Y-99671130D01*
X170092857Y-99671130D01*
X170188095Y-99623511D01*
X170235714Y-99575892D01*
X170283333Y-99480654D01*
X170283333Y-99242559D01*
X170235714Y-99147321D01*
X170188095Y-99099702D01*
X170092857Y-99052083D01*
X169902380Y-99052083D01*
X169807142Y-99099702D01*
X169759523Y-99147321D01*
X169711904Y-99242559D01*
X170711904Y-99290178D02*
X171473809Y-99290178D01*
X171950000Y-99671130D02*
X171950000Y-98671130D01*
X172521428Y-99671130D02*
X172092857Y-99099702D01*
X172521428Y-98671130D02*
X171950000Y-99242559D01*
X173330952Y-99623511D02*
X173235714Y-99671130D01*
X173045238Y-99671130D01*
X172950000Y-99623511D01*
X172902380Y-99528273D01*
X172902380Y-99147321D01*
X172950000Y-99052083D01*
X173045238Y-99004464D01*
X173235714Y-99004464D01*
X173330952Y-99052083D01*
X173378571Y-99147321D01*
X173378571Y-99242559D01*
X172902380Y-99337797D01*
X173711904Y-99004464D02*
X173950000Y-99671130D01*
X174188095Y-99004464D02*
X173950000Y-99671130D01*
X173854761Y-99909226D01*
X173807142Y-99956845D01*
X173711904Y-100004464D01*
G04 #@! TO.C,MX16*
X158193750Y-83487500D02*
X160193750Y-83487500D01*
X160193750Y-83487500D02*
X160193750Y-85487500D01*
X158193750Y-97487500D02*
X160193750Y-97487500D01*
X160193750Y-97487500D02*
X160193750Y-95487500D01*
X146193750Y-95487500D02*
X146193750Y-97487500D01*
X146193750Y-97487500D02*
X148193750Y-97487500D01*
X148193750Y-83487500D02*
X146193750Y-83487500D01*
X146193750Y-83487500D02*
X146193750Y-85487500D01*
X143668750Y-80962500D02*
X162718750Y-80962500D01*
X162718750Y-80962500D02*
X162718750Y-100012500D01*
X162718750Y-100012500D02*
X143668750Y-100012500D01*
X143668750Y-100012500D02*
X143668750Y-80962500D01*
G04 #@! TO.C,MX15*
X139143750Y-83487500D02*
X141143750Y-83487500D01*
X141143750Y-83487500D02*
X141143750Y-85487500D01*
X139143750Y-97487500D02*
X141143750Y-97487500D01*
X141143750Y-97487500D02*
X141143750Y-95487500D01*
X127143750Y-95487500D02*
X127143750Y-97487500D01*
X127143750Y-97487500D02*
X129143750Y-97487500D01*
X129143750Y-83487500D02*
X127143750Y-83487500D01*
X127143750Y-83487500D02*
X127143750Y-85487500D01*
X124618750Y-80962500D02*
X143668750Y-80962500D01*
X143668750Y-80962500D02*
X143668750Y-100012500D01*
X143668750Y-100012500D02*
X124618750Y-100012500D01*
X124618750Y-100012500D02*
X124618750Y-80962500D01*
G04 #@! TO.C,MX14*
X120093750Y-83487500D02*
X122093750Y-83487500D01*
X122093750Y-83487500D02*
X122093750Y-85487500D01*
X120093750Y-97487500D02*
X122093750Y-97487500D01*
X122093750Y-97487500D02*
X122093750Y-95487500D01*
X108093750Y-95487500D02*
X108093750Y-97487500D01*
X108093750Y-97487500D02*
X110093750Y-97487500D01*
X110093750Y-83487500D02*
X108093750Y-83487500D01*
X108093750Y-83487500D02*
X108093750Y-85487500D01*
X105568750Y-80962500D02*
X124618750Y-80962500D01*
X124618750Y-80962500D02*
X124618750Y-100012500D01*
X124618750Y-100012500D02*
X105568750Y-100012500D01*
X105568750Y-100012500D02*
X105568750Y-80962500D01*
G04 #@! TO.C,MX13*
X101043750Y-83487500D02*
X103043750Y-83487500D01*
X103043750Y-83487500D02*
X103043750Y-85487500D01*
X101043750Y-97487500D02*
X103043750Y-97487500D01*
X103043750Y-97487500D02*
X103043750Y-95487500D01*
X89043750Y-95487500D02*
X89043750Y-97487500D01*
X89043750Y-97487500D02*
X91043750Y-97487500D01*
X91043750Y-83487500D02*
X89043750Y-83487500D01*
X89043750Y-83487500D02*
X89043750Y-85487500D01*
X86518750Y-80962500D02*
X105568750Y-80962500D01*
X105568750Y-80962500D02*
X105568750Y-100012500D01*
X105568750Y-100012500D02*
X86518750Y-100012500D01*
X86518750Y-100012500D02*
X86518750Y-80962500D01*
G04 #@! TO.C,MX12*
X158193750Y-64437500D02*
X160193750Y-64437500D01*
X160193750Y-64437500D02*
X160193750Y-66437500D01*
X158193750Y-78437500D02*
X160193750Y-78437500D01*
X160193750Y-78437500D02*
X160193750Y-76437500D01*
X146193750Y-76437500D02*
X146193750Y-78437500D01*
X146193750Y-78437500D02*
X148193750Y-78437500D01*
X148193750Y-64437500D02*
X146193750Y-64437500D01*
X146193750Y-64437500D02*
X146193750Y-66437500D01*
X143668750Y-61912500D02*
X162718750Y-61912500D01*
X162718750Y-61912500D02*
X162718750Y-80962500D01*
X162718750Y-80962500D02*
X143668750Y-80962500D01*
X143668750Y-80962500D02*
X143668750Y-61912500D01*
G04 #@! TO.C,MX11*
X139143750Y-64437500D02*
X141143750Y-64437500D01*
X141143750Y-64437500D02*
X141143750Y-66437500D01*
X139143750Y-78437500D02*
X141143750Y-78437500D01*
X141143750Y-78437500D02*
X141143750Y-76437500D01*
X127143750Y-76437500D02*
X127143750Y-78437500D01*
X127143750Y-78437500D02*
X129143750Y-78437500D01*
X129143750Y-64437500D02*
X127143750Y-64437500D01*
X127143750Y-64437500D02*
X127143750Y-66437500D01*
X124618750Y-61912500D02*
X143668750Y-61912500D01*
X143668750Y-61912500D02*
X143668750Y-80962500D01*
X143668750Y-80962500D02*
X124618750Y-80962500D01*
X124618750Y-80962500D02*
X124618750Y-61912500D01*
G04 #@! TO.C,MX10*
X120093750Y-64437500D02*
X122093750Y-64437500D01*
X122093750Y-64437500D02*
X122093750Y-66437500D01*
X120093750Y-78437500D02*
X122093750Y-78437500D01*
X122093750Y-78437500D02*
X122093750Y-76437500D01*
X108093750Y-76437500D02*
X108093750Y-78437500D01*
X108093750Y-78437500D02*
X110093750Y-78437500D01*
X110093750Y-64437500D02*
X108093750Y-64437500D01*
X108093750Y-64437500D02*
X108093750Y-66437500D01*
X105568750Y-61912500D02*
X124618750Y-61912500D01*
X124618750Y-61912500D02*
X124618750Y-80962500D01*
X124618750Y-80962500D02*
X105568750Y-80962500D01*
X105568750Y-80962500D02*
X105568750Y-61912500D01*
G04 #@! TO.C,MX9*
X101043750Y-64437500D02*
X103043750Y-64437500D01*
X103043750Y-64437500D02*
X103043750Y-66437500D01*
X101043750Y-78437500D02*
X103043750Y-78437500D01*
X103043750Y-78437500D02*
X103043750Y-76437500D01*
X89043750Y-76437500D02*
X89043750Y-78437500D01*
X89043750Y-78437500D02*
X91043750Y-78437500D01*
X91043750Y-64437500D02*
X89043750Y-64437500D01*
X89043750Y-64437500D02*
X89043750Y-66437500D01*
X86518750Y-61912500D02*
X105568750Y-61912500D01*
X105568750Y-61912500D02*
X105568750Y-80962500D01*
X105568750Y-80962500D02*
X86518750Y-80962500D01*
X86518750Y-80962500D02*
X86518750Y-61912500D01*
G04 #@! TO.C,MX8*
X158193750Y-45387500D02*
X160193750Y-45387500D01*
X160193750Y-45387500D02*
X160193750Y-47387500D01*
X158193750Y-59387500D02*
X160193750Y-59387500D01*
X160193750Y-59387500D02*
X160193750Y-57387500D01*
X146193750Y-57387500D02*
X146193750Y-59387500D01*
X146193750Y-59387500D02*
X148193750Y-59387500D01*
X148193750Y-45387500D02*
X146193750Y-45387500D01*
X146193750Y-45387500D02*
X146193750Y-47387500D01*
X143668750Y-42862500D02*
X162718750Y-42862500D01*
X162718750Y-42862500D02*
X162718750Y-61912500D01*
X162718750Y-61912500D02*
X143668750Y-61912500D01*
X143668750Y-61912500D02*
X143668750Y-42862500D01*
G04 #@! TO.C,MX7*
X139143750Y-45387500D02*
X141143750Y-45387500D01*
X141143750Y-45387500D02*
X141143750Y-47387500D01*
X139143750Y-59387500D02*
X141143750Y-59387500D01*
X141143750Y-59387500D02*
X141143750Y-57387500D01*
X127143750Y-57387500D02*
X127143750Y-59387500D01*
X127143750Y-59387500D02*
X129143750Y-59387500D01*
X129143750Y-45387500D02*
X127143750Y-45387500D01*
X127143750Y-45387500D02*
X127143750Y-47387500D01*
X124618750Y-42862500D02*
X143668750Y-42862500D01*
X143668750Y-42862500D02*
X143668750Y-61912500D01*
X143668750Y-61912500D02*
X124618750Y-61912500D01*
X124618750Y-61912500D02*
X124618750Y-42862500D01*
G04 #@! TO.C,MX6*
X120093750Y-45387500D02*
X122093750Y-45387500D01*
X122093750Y-45387500D02*
X122093750Y-47387500D01*
X120093750Y-59387500D02*
X122093750Y-59387500D01*
X122093750Y-59387500D02*
X122093750Y-57387500D01*
X108093750Y-57387500D02*
X108093750Y-59387500D01*
X108093750Y-59387500D02*
X110093750Y-59387500D01*
X110093750Y-45387500D02*
X108093750Y-45387500D01*
X108093750Y-45387500D02*
X108093750Y-47387500D01*
X105568750Y-42862500D02*
X124618750Y-42862500D01*
X124618750Y-42862500D02*
X124618750Y-61912500D01*
X124618750Y-61912500D02*
X105568750Y-61912500D01*
X105568750Y-61912500D02*
X105568750Y-42862500D01*
G04 #@! TO.C,MX5*
X101043750Y-45387500D02*
X103043750Y-45387500D01*
X103043750Y-45387500D02*
X103043750Y-47387500D01*
X101043750Y-59387500D02*
X103043750Y-59387500D01*
X103043750Y-59387500D02*
X103043750Y-57387500D01*
X89043750Y-57387500D02*
X89043750Y-59387500D01*
X89043750Y-59387500D02*
X91043750Y-59387500D01*
X91043750Y-45387500D02*
X89043750Y-45387500D01*
X89043750Y-45387500D02*
X89043750Y-47387500D01*
X86518750Y-42862500D02*
X105568750Y-42862500D01*
X105568750Y-42862500D02*
X105568750Y-61912500D01*
X105568750Y-61912500D02*
X86518750Y-61912500D01*
X86518750Y-61912500D02*
X86518750Y-42862500D01*
G04 #@! TO.C,MX4*
X158193750Y-26337500D02*
X160193750Y-26337500D01*
X160193750Y-26337500D02*
X160193750Y-28337500D01*
X158193750Y-40337500D02*
X160193750Y-40337500D01*
X160193750Y-40337500D02*
X160193750Y-38337500D01*
X146193750Y-38337500D02*
X146193750Y-40337500D01*
X146193750Y-40337500D02*
X148193750Y-40337500D01*
X148193750Y-26337500D02*
X146193750Y-26337500D01*
X146193750Y-26337500D02*
X146193750Y-28337500D01*
X143668750Y-23812500D02*
X162718750Y-23812500D01*
X162718750Y-23812500D02*
X162718750Y-42862500D01*
X162718750Y-42862500D02*
X143668750Y-42862500D01*
X143668750Y-42862500D02*
X143668750Y-23812500D01*
G04 #@! TO.C,MX3*
X139143750Y-26337500D02*
X141143750Y-26337500D01*
X141143750Y-26337500D02*
X141143750Y-28337500D01*
X139143750Y-40337500D02*
X141143750Y-40337500D01*
X141143750Y-40337500D02*
X141143750Y-38337500D01*
X127143750Y-38337500D02*
X127143750Y-40337500D01*
X127143750Y-40337500D02*
X129143750Y-40337500D01*
X129143750Y-26337500D02*
X127143750Y-26337500D01*
X127143750Y-26337500D02*
X127143750Y-28337500D01*
X124618750Y-23812500D02*
X143668750Y-23812500D01*
X143668750Y-23812500D02*
X143668750Y-42862500D01*
X143668750Y-42862500D02*
X124618750Y-42862500D01*
X124618750Y-42862500D02*
X124618750Y-23812500D01*
G04 #@! TO.C,MX2*
X120093750Y-26337500D02*
X122093750Y-26337500D01*
X122093750Y-26337500D02*
X122093750Y-28337500D01*
X120093750Y-40337500D02*
X122093750Y-40337500D01*
X122093750Y-40337500D02*
X122093750Y-38337500D01*
X108093750Y-38337500D02*
X108093750Y-40337500D01*
X108093750Y-40337500D02*
X110093750Y-40337500D01*
X110093750Y-26337500D02*
X108093750Y-26337500D01*
X108093750Y-26337500D02*
X108093750Y-28337500D01*
X105568750Y-23812500D02*
X124618750Y-23812500D01*
X124618750Y-23812500D02*
X124618750Y-42862500D01*
X124618750Y-42862500D02*
X105568750Y-42862500D01*
X105568750Y-42862500D02*
X105568750Y-23812500D01*
G04 #@! TO.C,MX1*
X101043750Y-26337500D02*
X103043750Y-26337500D01*
X103043750Y-26337500D02*
X103043750Y-28337500D01*
X101043750Y-40337500D02*
X103043750Y-40337500D01*
X103043750Y-40337500D02*
X103043750Y-38337500D01*
X89043750Y-38337500D02*
X89043750Y-40337500D01*
X89043750Y-40337500D02*
X91043750Y-40337500D01*
X91043750Y-26337500D02*
X89043750Y-26337500D01*
X89043750Y-26337500D02*
X89043750Y-28337500D01*
X86518750Y-23812500D02*
X105568750Y-23812500D01*
X105568750Y-23812500D02*
X105568750Y-42862500D01*
X105568750Y-42862500D02*
X86518750Y-42862500D01*
X86518750Y-42862500D02*
X86518750Y-23812500D01*
G04 #@! TD*
G04 #@! TO.C,MX16*
X151431845Y-94114880D02*
X151431845Y-93114880D01*
X151765178Y-93829166D01*
X152098511Y-93114880D01*
X152098511Y-94114880D01*
X152479464Y-93114880D02*
X153146130Y-94114880D01*
X153146130Y-93114880D02*
X152479464Y-94114880D01*
X154050892Y-94114880D02*
X153479464Y-94114880D01*
X153765178Y-94114880D02*
X153765178Y-93114880D01*
X153669940Y-93257738D01*
X153574702Y-93352976D01*
X153479464Y-93400595D01*
X154908035Y-93114880D02*
X154717559Y-93114880D01*
X154622321Y-93162500D01*
X154574702Y-93210119D01*
X154479464Y-93352976D01*
X154431845Y-93543452D01*
X154431845Y-93924404D01*
X154479464Y-94019642D01*
X154527083Y-94067261D01*
X154622321Y-94114880D01*
X154812797Y-94114880D01*
X154908035Y-94067261D01*
X154955654Y-94019642D01*
X155003273Y-93924404D01*
X155003273Y-93686309D01*
X154955654Y-93591071D01*
X154908035Y-93543452D01*
X154812797Y-93495833D01*
X154622321Y-93495833D01*
X154527083Y-93543452D01*
X154479464Y-93591071D01*
X154431845Y-93686309D01*
X149431845Y-83002380D02*
X149431845Y-82002380D01*
X149765178Y-82716666D01*
X150098511Y-82002380D01*
X150098511Y-83002380D01*
X150479464Y-82002380D02*
X151146130Y-83002380D01*
X151146130Y-82002380D02*
X150479464Y-83002380D01*
X151527083Y-82621428D02*
X152288988Y-82621428D01*
X152765178Y-83002380D02*
X152765178Y-82002380D01*
X153336607Y-83002380D01*
X153336607Y-82002380D01*
X153955654Y-83002380D02*
X153860416Y-82954761D01*
X153812797Y-82907142D01*
X153765178Y-82811904D01*
X153765178Y-82526190D01*
X153812797Y-82430952D01*
X153860416Y-82383333D01*
X153955654Y-82335714D01*
X154098511Y-82335714D01*
X154193750Y-82383333D01*
X154241369Y-82430952D01*
X154288988Y-82526190D01*
X154288988Y-82811904D01*
X154241369Y-82907142D01*
X154193750Y-82954761D01*
X154098511Y-83002380D01*
X153955654Y-83002380D01*
X155193750Y-83002380D02*
X154717559Y-83002380D01*
X154717559Y-82002380D01*
X155527083Y-82478571D02*
X155860416Y-82478571D01*
X156003273Y-83002380D02*
X155527083Y-83002380D01*
X155527083Y-82002380D01*
X156003273Y-82002380D01*
X156431845Y-83002380D02*
X156431845Y-82002380D01*
X156669940Y-82002380D01*
X156812797Y-82050000D01*
X156908035Y-82145238D01*
X156955654Y-82240476D01*
X157003273Y-82430952D01*
X157003273Y-82573809D01*
X156955654Y-82764285D01*
X156908035Y-82859523D01*
X156812797Y-82954761D01*
X156669940Y-83002380D01*
X156431845Y-83002380D01*
G04 #@! TO.C,MX15*
X132381845Y-94114880D02*
X132381845Y-93114880D01*
X132715178Y-93829166D01*
X133048511Y-93114880D01*
X133048511Y-94114880D01*
X133429464Y-93114880D02*
X134096130Y-94114880D01*
X134096130Y-93114880D02*
X133429464Y-94114880D01*
X135000892Y-94114880D02*
X134429464Y-94114880D01*
X134715178Y-94114880D02*
X134715178Y-93114880D01*
X134619940Y-93257738D01*
X134524702Y-93352976D01*
X134429464Y-93400595D01*
X135905654Y-93114880D02*
X135429464Y-93114880D01*
X135381845Y-93591071D01*
X135429464Y-93543452D01*
X135524702Y-93495833D01*
X135762797Y-93495833D01*
X135858035Y-93543452D01*
X135905654Y-93591071D01*
X135953273Y-93686309D01*
X135953273Y-93924404D01*
X135905654Y-94019642D01*
X135858035Y-94067261D01*
X135762797Y-94114880D01*
X135524702Y-94114880D01*
X135429464Y-94067261D01*
X135381845Y-94019642D01*
X130381845Y-83002380D02*
X130381845Y-82002380D01*
X130715178Y-82716666D01*
X131048511Y-82002380D01*
X131048511Y-83002380D01*
X131429464Y-82002380D02*
X132096130Y-83002380D01*
X132096130Y-82002380D02*
X131429464Y-83002380D01*
X132477083Y-82621428D02*
X133238988Y-82621428D01*
X133715178Y-83002380D02*
X133715178Y-82002380D01*
X134286607Y-83002380D01*
X134286607Y-82002380D01*
X134905654Y-83002380D02*
X134810416Y-82954761D01*
X134762797Y-82907142D01*
X134715178Y-82811904D01*
X134715178Y-82526190D01*
X134762797Y-82430952D01*
X134810416Y-82383333D01*
X134905654Y-82335714D01*
X135048511Y-82335714D01*
X135143750Y-82383333D01*
X135191369Y-82430952D01*
X135238988Y-82526190D01*
X135238988Y-82811904D01*
X135191369Y-82907142D01*
X135143750Y-82954761D01*
X135048511Y-83002380D01*
X134905654Y-83002380D01*
X136143750Y-83002380D02*
X135667559Y-83002380D01*
X135667559Y-82002380D01*
X136477083Y-82478571D02*
X136810416Y-82478571D01*
X136953273Y-83002380D02*
X136477083Y-83002380D01*
X136477083Y-82002380D01*
X136953273Y-82002380D01*
X137381845Y-83002380D02*
X137381845Y-82002380D01*
X137619940Y-82002380D01*
X137762797Y-82050000D01*
X137858035Y-82145238D01*
X137905654Y-82240476D01*
X137953273Y-82430952D01*
X137953273Y-82573809D01*
X137905654Y-82764285D01*
X137858035Y-82859523D01*
X137762797Y-82954761D01*
X137619940Y-83002380D01*
X137381845Y-83002380D01*
G04 #@! TO.C,MX14*
X113331845Y-94114880D02*
X113331845Y-93114880D01*
X113665178Y-93829166D01*
X113998511Y-93114880D01*
X113998511Y-94114880D01*
X114379464Y-93114880D02*
X115046130Y-94114880D01*
X115046130Y-93114880D02*
X114379464Y-94114880D01*
X115950892Y-94114880D02*
X115379464Y-94114880D01*
X115665178Y-94114880D02*
X115665178Y-93114880D01*
X115569940Y-93257738D01*
X115474702Y-93352976D01*
X115379464Y-93400595D01*
X116808035Y-93448214D02*
X116808035Y-94114880D01*
X116569940Y-93067261D02*
X116331845Y-93781547D01*
X116950892Y-93781547D01*
X111331845Y-83002380D02*
X111331845Y-82002380D01*
X111665178Y-82716666D01*
X111998511Y-82002380D01*
X111998511Y-83002380D01*
X112379464Y-82002380D02*
X113046130Y-83002380D01*
X113046130Y-82002380D02*
X112379464Y-83002380D01*
X113427083Y-82621428D02*
X114188988Y-82621428D01*
X114665178Y-83002380D02*
X114665178Y-82002380D01*
X115236607Y-83002380D01*
X115236607Y-82002380D01*
X115855654Y-83002380D02*
X115760416Y-82954761D01*
X115712797Y-82907142D01*
X115665178Y-82811904D01*
X115665178Y-82526190D01*
X115712797Y-82430952D01*
X115760416Y-82383333D01*
X115855654Y-82335714D01*
X115998511Y-82335714D01*
X116093750Y-82383333D01*
X116141369Y-82430952D01*
X116188988Y-82526190D01*
X116188988Y-82811904D01*
X116141369Y-82907142D01*
X116093750Y-82954761D01*
X115998511Y-83002380D01*
X115855654Y-83002380D01*
X117093750Y-83002380D02*
X116617559Y-83002380D01*
X116617559Y-82002380D01*
X117427083Y-82478571D02*
X117760416Y-82478571D01*
X117903273Y-83002380D02*
X117427083Y-83002380D01*
X117427083Y-82002380D01*
X117903273Y-82002380D01*
X118331845Y-83002380D02*
X118331845Y-82002380D01*
X118569940Y-82002380D01*
X118712797Y-82050000D01*
X118808035Y-82145238D01*
X118855654Y-82240476D01*
X118903273Y-82430952D01*
X118903273Y-82573809D01*
X118855654Y-82764285D01*
X118808035Y-82859523D01*
X118712797Y-82954761D01*
X118569940Y-83002380D01*
X118331845Y-83002380D01*
G04 #@! TO.C,MX13*
X94281845Y-94114880D02*
X94281845Y-93114880D01*
X94615178Y-93829166D01*
X94948511Y-93114880D01*
X94948511Y-94114880D01*
X95329464Y-93114880D02*
X95996130Y-94114880D01*
X95996130Y-93114880D02*
X95329464Y-94114880D01*
X96900892Y-94114880D02*
X96329464Y-94114880D01*
X96615178Y-94114880D02*
X96615178Y-93114880D01*
X96519940Y-93257738D01*
X96424702Y-93352976D01*
X96329464Y-93400595D01*
X97234226Y-93114880D02*
X97853273Y-93114880D01*
X97519940Y-93495833D01*
X97662797Y-93495833D01*
X97758035Y-93543452D01*
X97805654Y-93591071D01*
X97853273Y-93686309D01*
X97853273Y-93924404D01*
X97805654Y-94019642D01*
X97758035Y-94067261D01*
X97662797Y-94114880D01*
X97377083Y-94114880D01*
X97281845Y-94067261D01*
X97234226Y-94019642D01*
X92281845Y-83002380D02*
X92281845Y-82002380D01*
X92615178Y-82716666D01*
X92948511Y-82002380D01*
X92948511Y-83002380D01*
X93329464Y-82002380D02*
X93996130Y-83002380D01*
X93996130Y-82002380D02*
X93329464Y-83002380D01*
X94377083Y-82621428D02*
X95138988Y-82621428D01*
X95615178Y-83002380D02*
X95615178Y-82002380D01*
X96186607Y-83002380D01*
X96186607Y-82002380D01*
X96805654Y-83002380D02*
X96710416Y-82954761D01*
X96662797Y-82907142D01*
X96615178Y-82811904D01*
X96615178Y-82526190D01*
X96662797Y-82430952D01*
X96710416Y-82383333D01*
X96805654Y-82335714D01*
X96948511Y-82335714D01*
X97043750Y-82383333D01*
X97091369Y-82430952D01*
X97138988Y-82526190D01*
X97138988Y-82811904D01*
X97091369Y-82907142D01*
X97043750Y-82954761D01*
X96948511Y-83002380D01*
X96805654Y-83002380D01*
X98043750Y-83002380D02*
X97567559Y-83002380D01*
X97567559Y-82002380D01*
X98377083Y-82478571D02*
X98710416Y-82478571D01*
X98853273Y-83002380D02*
X98377083Y-83002380D01*
X98377083Y-82002380D01*
X98853273Y-82002380D01*
X99281845Y-83002380D02*
X99281845Y-82002380D01*
X99519940Y-82002380D01*
X99662797Y-82050000D01*
X99758035Y-82145238D01*
X99805654Y-82240476D01*
X99853273Y-82430952D01*
X99853273Y-82573809D01*
X99805654Y-82764285D01*
X99758035Y-82859523D01*
X99662797Y-82954761D01*
X99519940Y-83002380D01*
X99281845Y-83002380D01*
G04 #@! TO.C,MX12*
X151431845Y-75064880D02*
X151431845Y-74064880D01*
X151765178Y-74779166D01*
X152098511Y-74064880D01*
X152098511Y-75064880D01*
X152479464Y-74064880D02*
X153146130Y-75064880D01*
X153146130Y-74064880D02*
X152479464Y-75064880D01*
X154050892Y-75064880D02*
X153479464Y-75064880D01*
X153765178Y-75064880D02*
X153765178Y-74064880D01*
X153669940Y-74207738D01*
X153574702Y-74302976D01*
X153479464Y-74350595D01*
X154431845Y-74160119D02*
X154479464Y-74112500D01*
X154574702Y-74064880D01*
X154812797Y-74064880D01*
X154908035Y-74112500D01*
X154955654Y-74160119D01*
X155003273Y-74255357D01*
X155003273Y-74350595D01*
X154955654Y-74493452D01*
X154384226Y-75064880D01*
X155003273Y-75064880D01*
X149431845Y-63952380D02*
X149431845Y-62952380D01*
X149765178Y-63666666D01*
X150098511Y-62952380D01*
X150098511Y-63952380D01*
X150479464Y-62952380D02*
X151146130Y-63952380D01*
X151146130Y-62952380D02*
X150479464Y-63952380D01*
X151527083Y-63571428D02*
X152288988Y-63571428D01*
X152765178Y-63952380D02*
X152765178Y-62952380D01*
X153336607Y-63952380D01*
X153336607Y-62952380D01*
X153955654Y-63952380D02*
X153860416Y-63904761D01*
X153812797Y-63857142D01*
X153765178Y-63761904D01*
X153765178Y-63476190D01*
X153812797Y-63380952D01*
X153860416Y-63333333D01*
X153955654Y-63285714D01*
X154098511Y-63285714D01*
X154193750Y-63333333D01*
X154241369Y-63380952D01*
X154288988Y-63476190D01*
X154288988Y-63761904D01*
X154241369Y-63857142D01*
X154193750Y-63904761D01*
X154098511Y-63952380D01*
X153955654Y-63952380D01*
X155193750Y-63952380D02*
X154717559Y-63952380D01*
X154717559Y-62952380D01*
X155527083Y-63428571D02*
X155860416Y-63428571D01*
X156003273Y-63952380D02*
X155527083Y-63952380D01*
X155527083Y-62952380D01*
X156003273Y-62952380D01*
X156431845Y-63952380D02*
X156431845Y-62952380D01*
X156669940Y-62952380D01*
X156812797Y-63000000D01*
X156908035Y-63095238D01*
X156955654Y-63190476D01*
X157003273Y-63380952D01*
X157003273Y-63523809D01*
X156955654Y-63714285D01*
X156908035Y-63809523D01*
X156812797Y-63904761D01*
X156669940Y-63952380D01*
X156431845Y-63952380D01*
G04 #@! TO.C,MX11*
X132381845Y-75064880D02*
X132381845Y-74064880D01*
X132715178Y-74779166D01*
X133048511Y-74064880D01*
X133048511Y-75064880D01*
X133429464Y-74064880D02*
X134096130Y-75064880D01*
X134096130Y-74064880D02*
X133429464Y-75064880D01*
X135000892Y-75064880D02*
X134429464Y-75064880D01*
X134715178Y-75064880D02*
X134715178Y-74064880D01*
X134619940Y-74207738D01*
X134524702Y-74302976D01*
X134429464Y-74350595D01*
X135953273Y-75064880D02*
X135381845Y-75064880D01*
X135667559Y-75064880D02*
X135667559Y-74064880D01*
X135572321Y-74207738D01*
X135477083Y-74302976D01*
X135381845Y-74350595D01*
X130381845Y-63952380D02*
X130381845Y-62952380D01*
X130715178Y-63666666D01*
X131048511Y-62952380D01*
X131048511Y-63952380D01*
X131429464Y-62952380D02*
X132096130Y-63952380D01*
X132096130Y-62952380D02*
X131429464Y-63952380D01*
X132477083Y-63571428D02*
X133238988Y-63571428D01*
X133715178Y-63952380D02*
X133715178Y-62952380D01*
X134286607Y-63952380D01*
X134286607Y-62952380D01*
X134905654Y-63952380D02*
X134810416Y-63904761D01*
X134762797Y-63857142D01*
X134715178Y-63761904D01*
X134715178Y-63476190D01*
X134762797Y-63380952D01*
X134810416Y-63333333D01*
X134905654Y-63285714D01*
X135048511Y-63285714D01*
X135143750Y-63333333D01*
X135191369Y-63380952D01*
X135238988Y-63476190D01*
X135238988Y-63761904D01*
X135191369Y-63857142D01*
X135143750Y-63904761D01*
X135048511Y-63952380D01*
X134905654Y-63952380D01*
X136143750Y-63952380D02*
X135667559Y-63952380D01*
X135667559Y-62952380D01*
X136477083Y-63428571D02*
X136810416Y-63428571D01*
X136953273Y-63952380D02*
X136477083Y-63952380D01*
X136477083Y-62952380D01*
X136953273Y-62952380D01*
X137381845Y-63952380D02*
X137381845Y-62952380D01*
X137619940Y-62952380D01*
X137762797Y-63000000D01*
X137858035Y-63095238D01*
X137905654Y-63190476D01*
X137953273Y-63380952D01*
X137953273Y-63523809D01*
X137905654Y-63714285D01*
X137858035Y-63809523D01*
X137762797Y-63904761D01*
X137619940Y-63952380D01*
X137381845Y-63952380D01*
G04 #@! TO.C,MX10*
X113331845Y-75064880D02*
X113331845Y-74064880D01*
X113665178Y-74779166D01*
X113998511Y-74064880D01*
X113998511Y-75064880D01*
X114379464Y-74064880D02*
X115046130Y-75064880D01*
X115046130Y-74064880D02*
X114379464Y-75064880D01*
X115950892Y-75064880D02*
X115379464Y-75064880D01*
X115665178Y-75064880D02*
X115665178Y-74064880D01*
X115569940Y-74207738D01*
X115474702Y-74302976D01*
X115379464Y-74350595D01*
X116569940Y-74064880D02*
X116665178Y-74064880D01*
X116760416Y-74112500D01*
X116808035Y-74160119D01*
X116855654Y-74255357D01*
X116903273Y-74445833D01*
X116903273Y-74683928D01*
X116855654Y-74874404D01*
X116808035Y-74969642D01*
X116760416Y-75017261D01*
X116665178Y-75064880D01*
X116569940Y-75064880D01*
X116474702Y-75017261D01*
X116427083Y-74969642D01*
X116379464Y-74874404D01*
X116331845Y-74683928D01*
X116331845Y-74445833D01*
X116379464Y-74255357D01*
X116427083Y-74160119D01*
X116474702Y-74112500D01*
X116569940Y-74064880D01*
X111331845Y-63952380D02*
X111331845Y-62952380D01*
X111665178Y-63666666D01*
X111998511Y-62952380D01*
X111998511Y-63952380D01*
X112379464Y-62952380D02*
X113046130Y-63952380D01*
X113046130Y-62952380D02*
X112379464Y-63952380D01*
X113427083Y-63571428D02*
X114188988Y-63571428D01*
X114665178Y-63952380D02*
X114665178Y-62952380D01*
X115236607Y-63952380D01*
X115236607Y-62952380D01*
X115855654Y-63952380D02*
X115760416Y-63904761D01*
X115712797Y-63857142D01*
X115665178Y-63761904D01*
X115665178Y-63476190D01*
X115712797Y-63380952D01*
X115760416Y-63333333D01*
X115855654Y-63285714D01*
X115998511Y-63285714D01*
X116093750Y-63333333D01*
X116141369Y-63380952D01*
X116188988Y-63476190D01*
X116188988Y-63761904D01*
X116141369Y-63857142D01*
X116093750Y-63904761D01*
X115998511Y-63952380D01*
X115855654Y-63952380D01*
X117093750Y-63952380D02*
X116617559Y-63952380D01*
X116617559Y-62952380D01*
X117427083Y-63428571D02*
X117760416Y-63428571D01*
X117903273Y-63952380D02*
X117427083Y-63952380D01*
X117427083Y-62952380D01*
X117903273Y-62952380D01*
X118331845Y-63952380D02*
X118331845Y-62952380D01*
X118569940Y-62952380D01*
X118712797Y-63000000D01*
X118808035Y-63095238D01*
X118855654Y-63190476D01*
X118903273Y-63380952D01*
X118903273Y-63523809D01*
X118855654Y-63714285D01*
X118808035Y-63809523D01*
X118712797Y-63904761D01*
X118569940Y-63952380D01*
X118331845Y-63952380D01*
G04 #@! TO.C,MX9*
X94758035Y-75064880D02*
X94758035Y-74064880D01*
X95091369Y-74779166D01*
X95424702Y-74064880D01*
X95424702Y-75064880D01*
X95805654Y-74064880D02*
X96472321Y-75064880D01*
X96472321Y-74064880D02*
X95805654Y-75064880D01*
X96900892Y-75064880D02*
X97091369Y-75064880D01*
X97186607Y-75017261D01*
X97234226Y-74969642D01*
X97329464Y-74826785D01*
X97377083Y-74636309D01*
X97377083Y-74255357D01*
X97329464Y-74160119D01*
X97281845Y-74112500D01*
X97186607Y-74064880D01*
X96996130Y-74064880D01*
X96900892Y-74112500D01*
X96853273Y-74160119D01*
X96805654Y-74255357D01*
X96805654Y-74493452D01*
X96853273Y-74588690D01*
X96900892Y-74636309D01*
X96996130Y-74683928D01*
X97186607Y-74683928D01*
X97281845Y-74636309D01*
X97329464Y-74588690D01*
X97377083Y-74493452D01*
X92281845Y-63952380D02*
X92281845Y-62952380D01*
X92615178Y-63666666D01*
X92948511Y-62952380D01*
X92948511Y-63952380D01*
X93329464Y-62952380D02*
X93996130Y-63952380D01*
X93996130Y-62952380D02*
X93329464Y-63952380D01*
X94377083Y-63571428D02*
X95138988Y-63571428D01*
X95615178Y-63952380D02*
X95615178Y-62952380D01*
X96186607Y-63952380D01*
X96186607Y-62952380D01*
X96805654Y-63952380D02*
X96710416Y-63904761D01*
X96662797Y-63857142D01*
X96615178Y-63761904D01*
X96615178Y-63476190D01*
X96662797Y-63380952D01*
X96710416Y-63333333D01*
X96805654Y-63285714D01*
X96948511Y-63285714D01*
X97043750Y-63333333D01*
X97091369Y-63380952D01*
X97138988Y-63476190D01*
X97138988Y-63761904D01*
X97091369Y-63857142D01*
X97043750Y-63904761D01*
X96948511Y-63952380D01*
X96805654Y-63952380D01*
X98043750Y-63952380D02*
X97567559Y-63952380D01*
X97567559Y-62952380D01*
X98377083Y-63428571D02*
X98710416Y-63428571D01*
X98853273Y-63952380D02*
X98377083Y-63952380D01*
X98377083Y-62952380D01*
X98853273Y-62952380D01*
X99281845Y-63952380D02*
X99281845Y-62952380D01*
X99519940Y-62952380D01*
X99662797Y-63000000D01*
X99758035Y-63095238D01*
X99805654Y-63190476D01*
X99853273Y-63380952D01*
X99853273Y-63523809D01*
X99805654Y-63714285D01*
X99758035Y-63809523D01*
X99662797Y-63904761D01*
X99519940Y-63952380D01*
X99281845Y-63952380D01*
G04 #@! TO.C,MX8*
X151908035Y-56014880D02*
X151908035Y-55014880D01*
X152241369Y-55729166D01*
X152574702Y-55014880D01*
X152574702Y-56014880D01*
X152955654Y-55014880D02*
X153622321Y-56014880D01*
X153622321Y-55014880D02*
X152955654Y-56014880D01*
X154146130Y-55443452D02*
X154050892Y-55395833D01*
X154003273Y-55348214D01*
X153955654Y-55252976D01*
X153955654Y-55205357D01*
X154003273Y-55110119D01*
X154050892Y-55062500D01*
X154146130Y-55014880D01*
X154336607Y-55014880D01*
X154431845Y-55062500D01*
X154479464Y-55110119D01*
X154527083Y-55205357D01*
X154527083Y-55252976D01*
X154479464Y-55348214D01*
X154431845Y-55395833D01*
X154336607Y-55443452D01*
X154146130Y-55443452D01*
X154050892Y-55491071D01*
X154003273Y-55538690D01*
X153955654Y-55633928D01*
X153955654Y-55824404D01*
X154003273Y-55919642D01*
X154050892Y-55967261D01*
X154146130Y-56014880D01*
X154336607Y-56014880D01*
X154431845Y-55967261D01*
X154479464Y-55919642D01*
X154527083Y-55824404D01*
X154527083Y-55633928D01*
X154479464Y-55538690D01*
X154431845Y-55491071D01*
X154336607Y-55443452D01*
X149431845Y-44902380D02*
X149431845Y-43902380D01*
X149765178Y-44616666D01*
X150098511Y-43902380D01*
X150098511Y-44902380D01*
X150479464Y-43902380D02*
X151146130Y-44902380D01*
X151146130Y-43902380D02*
X150479464Y-44902380D01*
X151527083Y-44521428D02*
X152288988Y-44521428D01*
X152765178Y-44902380D02*
X152765178Y-43902380D01*
X153336607Y-44902380D01*
X153336607Y-43902380D01*
X153955654Y-44902380D02*
X153860416Y-44854761D01*
X153812797Y-44807142D01*
X153765178Y-44711904D01*
X153765178Y-44426190D01*
X153812797Y-44330952D01*
X153860416Y-44283333D01*
X153955654Y-44235714D01*
X154098511Y-44235714D01*
X154193750Y-44283333D01*
X154241369Y-44330952D01*
X154288988Y-44426190D01*
X154288988Y-44711904D01*
X154241369Y-44807142D01*
X154193750Y-44854761D01*
X154098511Y-44902380D01*
X153955654Y-44902380D01*
X155193750Y-44902380D02*
X154717559Y-44902380D01*
X154717559Y-43902380D01*
X155527083Y-44378571D02*
X155860416Y-44378571D01*
X156003273Y-44902380D02*
X155527083Y-44902380D01*
X155527083Y-43902380D01*
X156003273Y-43902380D01*
X156431845Y-44902380D02*
X156431845Y-43902380D01*
X156669940Y-43902380D01*
X156812797Y-43950000D01*
X156908035Y-44045238D01*
X156955654Y-44140476D01*
X157003273Y-44330952D01*
X157003273Y-44473809D01*
X156955654Y-44664285D01*
X156908035Y-44759523D01*
X156812797Y-44854761D01*
X156669940Y-44902380D01*
X156431845Y-44902380D01*
G04 #@! TO.C,MX7*
X132858035Y-56014880D02*
X132858035Y-55014880D01*
X133191369Y-55729166D01*
X133524702Y-55014880D01*
X133524702Y-56014880D01*
X133905654Y-55014880D02*
X134572321Y-56014880D01*
X134572321Y-55014880D02*
X133905654Y-56014880D01*
X134858035Y-55014880D02*
X135524702Y-55014880D01*
X135096130Y-56014880D01*
X130381845Y-44902380D02*
X130381845Y-43902380D01*
X130715178Y-44616666D01*
X131048511Y-43902380D01*
X131048511Y-44902380D01*
X131429464Y-43902380D02*
X132096130Y-44902380D01*
X132096130Y-43902380D02*
X131429464Y-44902380D01*
X132477083Y-44521428D02*
X133238988Y-44521428D01*
X133715178Y-44902380D02*
X133715178Y-43902380D01*
X134286607Y-44902380D01*
X134286607Y-43902380D01*
X134905654Y-44902380D02*
X134810416Y-44854761D01*
X134762797Y-44807142D01*
X134715178Y-44711904D01*
X134715178Y-44426190D01*
X134762797Y-44330952D01*
X134810416Y-44283333D01*
X134905654Y-44235714D01*
X135048511Y-44235714D01*
X135143750Y-44283333D01*
X135191369Y-44330952D01*
X135238988Y-44426190D01*
X135238988Y-44711904D01*
X135191369Y-44807142D01*
X135143750Y-44854761D01*
X135048511Y-44902380D01*
X134905654Y-44902380D01*
X136143750Y-44902380D02*
X135667559Y-44902380D01*
X135667559Y-43902380D01*
X136477083Y-44378571D02*
X136810416Y-44378571D01*
X136953273Y-44902380D02*
X136477083Y-44902380D01*
X136477083Y-43902380D01*
X136953273Y-43902380D01*
X137381845Y-44902380D02*
X137381845Y-43902380D01*
X137619940Y-43902380D01*
X137762797Y-43950000D01*
X137858035Y-44045238D01*
X137905654Y-44140476D01*
X137953273Y-44330952D01*
X137953273Y-44473809D01*
X137905654Y-44664285D01*
X137858035Y-44759523D01*
X137762797Y-44854761D01*
X137619940Y-44902380D01*
X137381845Y-44902380D01*
G04 #@! TO.C,MX6*
X113808035Y-56014880D02*
X113808035Y-55014880D01*
X114141369Y-55729166D01*
X114474702Y-55014880D01*
X114474702Y-56014880D01*
X114855654Y-55014880D02*
X115522321Y-56014880D01*
X115522321Y-55014880D02*
X114855654Y-56014880D01*
X116331845Y-55014880D02*
X116141369Y-55014880D01*
X116046130Y-55062500D01*
X115998511Y-55110119D01*
X115903273Y-55252976D01*
X115855654Y-55443452D01*
X115855654Y-55824404D01*
X115903273Y-55919642D01*
X115950892Y-55967261D01*
X116046130Y-56014880D01*
X116236607Y-56014880D01*
X116331845Y-55967261D01*
X116379464Y-55919642D01*
X116427083Y-55824404D01*
X116427083Y-55586309D01*
X116379464Y-55491071D01*
X116331845Y-55443452D01*
X116236607Y-55395833D01*
X116046130Y-55395833D01*
X115950892Y-55443452D01*
X115903273Y-55491071D01*
X115855654Y-55586309D01*
X111331845Y-44902380D02*
X111331845Y-43902380D01*
X111665178Y-44616666D01*
X111998511Y-43902380D01*
X111998511Y-44902380D01*
X112379464Y-43902380D02*
X113046130Y-44902380D01*
X113046130Y-43902380D02*
X112379464Y-44902380D01*
X113427083Y-44521428D02*
X114188988Y-44521428D01*
X114665178Y-44902380D02*
X114665178Y-43902380D01*
X115236607Y-44902380D01*
X115236607Y-43902380D01*
X115855654Y-44902380D02*
X115760416Y-44854761D01*
X115712797Y-44807142D01*
X115665178Y-44711904D01*
X115665178Y-44426190D01*
X115712797Y-44330952D01*
X115760416Y-44283333D01*
X115855654Y-44235714D01*
X115998511Y-44235714D01*
X116093750Y-44283333D01*
X116141369Y-44330952D01*
X116188988Y-44426190D01*
X116188988Y-44711904D01*
X116141369Y-44807142D01*
X116093750Y-44854761D01*
X115998511Y-44902380D01*
X115855654Y-44902380D01*
X117093750Y-44902380D02*
X116617559Y-44902380D01*
X116617559Y-43902380D01*
X117427083Y-44378571D02*
X117760416Y-44378571D01*
X117903273Y-44902380D02*
X117427083Y-44902380D01*
X117427083Y-43902380D01*
X117903273Y-43902380D01*
X118331845Y-44902380D02*
X118331845Y-43902380D01*
X118569940Y-43902380D01*
X118712797Y-43950000D01*
X118808035Y-44045238D01*
X118855654Y-44140476D01*
X118903273Y-44330952D01*
X118903273Y-44473809D01*
X118855654Y-44664285D01*
X118808035Y-44759523D01*
X118712797Y-44854761D01*
X118569940Y-44902380D01*
X118331845Y-44902380D01*
G04 #@! TO.C,MX5*
X94758035Y-56014880D02*
X94758035Y-55014880D01*
X95091369Y-55729166D01*
X95424702Y-55014880D01*
X95424702Y-56014880D01*
X95805654Y-55014880D02*
X96472321Y-56014880D01*
X96472321Y-55014880D02*
X95805654Y-56014880D01*
X97329464Y-55014880D02*
X96853273Y-55014880D01*
X96805654Y-55491071D01*
X96853273Y-55443452D01*
X96948511Y-55395833D01*
X97186607Y-55395833D01*
X97281845Y-55443452D01*
X97329464Y-55491071D01*
X97377083Y-55586309D01*
X97377083Y-55824404D01*
X97329464Y-55919642D01*
X97281845Y-55967261D01*
X97186607Y-56014880D01*
X96948511Y-56014880D01*
X96853273Y-55967261D01*
X96805654Y-55919642D01*
X92281845Y-44902380D02*
X92281845Y-43902380D01*
X92615178Y-44616666D01*
X92948511Y-43902380D01*
X92948511Y-44902380D01*
X93329464Y-43902380D02*
X93996130Y-44902380D01*
X93996130Y-43902380D02*
X93329464Y-44902380D01*
X94377083Y-44521428D02*
X95138988Y-44521428D01*
X95615178Y-44902380D02*
X95615178Y-43902380D01*
X96186607Y-44902380D01*
X96186607Y-43902380D01*
X96805654Y-44902380D02*
X96710416Y-44854761D01*
X96662797Y-44807142D01*
X96615178Y-44711904D01*
X96615178Y-44426190D01*
X96662797Y-44330952D01*
X96710416Y-44283333D01*
X96805654Y-44235714D01*
X96948511Y-44235714D01*
X97043750Y-44283333D01*
X97091369Y-44330952D01*
X97138988Y-44426190D01*
X97138988Y-44711904D01*
X97091369Y-44807142D01*
X97043750Y-44854761D01*
X96948511Y-44902380D01*
X96805654Y-44902380D01*
X98043750Y-44902380D02*
X97567559Y-44902380D01*
X97567559Y-43902380D01*
X98377083Y-44378571D02*
X98710416Y-44378571D01*
X98853273Y-44902380D02*
X98377083Y-44902380D01*
X98377083Y-43902380D01*
X98853273Y-43902380D01*
X99281845Y-44902380D02*
X99281845Y-43902380D01*
X99519940Y-43902380D01*
X99662797Y-43950000D01*
X99758035Y-44045238D01*
X99805654Y-44140476D01*
X99853273Y-44330952D01*
X99853273Y-44473809D01*
X99805654Y-44664285D01*
X99758035Y-44759523D01*
X99662797Y-44854761D01*
X99519940Y-44902380D01*
X99281845Y-44902380D01*
G04 #@! TO.C,MX4*
X151908035Y-36964880D02*
X151908035Y-35964880D01*
X152241369Y-36679166D01*
X152574702Y-35964880D01*
X152574702Y-36964880D01*
X152955654Y-35964880D02*
X153622321Y-36964880D01*
X153622321Y-35964880D02*
X152955654Y-36964880D01*
X154431845Y-36298214D02*
X154431845Y-36964880D01*
X154193750Y-35917261D02*
X153955654Y-36631547D01*
X154574702Y-36631547D01*
X149431845Y-25852380D02*
X149431845Y-24852380D01*
X149765178Y-25566666D01*
X150098511Y-24852380D01*
X150098511Y-25852380D01*
X150479464Y-24852380D02*
X151146130Y-25852380D01*
X151146130Y-24852380D02*
X150479464Y-25852380D01*
X151527083Y-25471428D02*
X152288988Y-25471428D01*
X152765178Y-25852380D02*
X152765178Y-24852380D01*
X153336607Y-25852380D01*
X153336607Y-24852380D01*
X153955654Y-25852380D02*
X153860416Y-25804761D01*
X153812797Y-25757142D01*
X153765178Y-25661904D01*
X153765178Y-25376190D01*
X153812797Y-25280952D01*
X153860416Y-25233333D01*
X153955654Y-25185714D01*
X154098511Y-25185714D01*
X154193750Y-25233333D01*
X154241369Y-25280952D01*
X154288988Y-25376190D01*
X154288988Y-25661904D01*
X154241369Y-25757142D01*
X154193750Y-25804761D01*
X154098511Y-25852380D01*
X153955654Y-25852380D01*
X155193750Y-25852380D02*
X154717559Y-25852380D01*
X154717559Y-24852380D01*
X155527083Y-25328571D02*
X155860416Y-25328571D01*
X156003273Y-25852380D02*
X155527083Y-25852380D01*
X155527083Y-24852380D01*
X156003273Y-24852380D01*
X156431845Y-25852380D02*
X156431845Y-24852380D01*
X156669940Y-24852380D01*
X156812797Y-24900000D01*
X156908035Y-24995238D01*
X156955654Y-25090476D01*
X157003273Y-25280952D01*
X157003273Y-25423809D01*
X156955654Y-25614285D01*
X156908035Y-25709523D01*
X156812797Y-25804761D01*
X156669940Y-25852380D01*
X156431845Y-25852380D01*
G04 #@! TO.C,MX3*
X132858035Y-36964880D02*
X132858035Y-35964880D01*
X133191369Y-36679166D01*
X133524702Y-35964880D01*
X133524702Y-36964880D01*
X133905654Y-35964880D02*
X134572321Y-36964880D01*
X134572321Y-35964880D02*
X133905654Y-36964880D01*
X134858035Y-35964880D02*
X135477083Y-35964880D01*
X135143750Y-36345833D01*
X135286607Y-36345833D01*
X135381845Y-36393452D01*
X135429464Y-36441071D01*
X135477083Y-36536309D01*
X135477083Y-36774404D01*
X135429464Y-36869642D01*
X135381845Y-36917261D01*
X135286607Y-36964880D01*
X135000892Y-36964880D01*
X134905654Y-36917261D01*
X134858035Y-36869642D01*
X130381845Y-25852380D02*
X130381845Y-24852380D01*
X130715178Y-25566666D01*
X131048511Y-24852380D01*
X131048511Y-25852380D01*
X131429464Y-24852380D02*
X132096130Y-25852380D01*
X132096130Y-24852380D02*
X131429464Y-25852380D01*
X132477083Y-25471428D02*
X133238988Y-25471428D01*
X133715178Y-25852380D02*
X133715178Y-24852380D01*
X134286607Y-25852380D01*
X134286607Y-24852380D01*
X134905654Y-25852380D02*
X134810416Y-25804761D01*
X134762797Y-25757142D01*
X134715178Y-25661904D01*
X134715178Y-25376190D01*
X134762797Y-25280952D01*
X134810416Y-25233333D01*
X134905654Y-25185714D01*
X135048511Y-25185714D01*
X135143750Y-25233333D01*
X135191369Y-25280952D01*
X135238988Y-25376190D01*
X135238988Y-25661904D01*
X135191369Y-25757142D01*
X135143750Y-25804761D01*
X135048511Y-25852380D01*
X134905654Y-25852380D01*
X136143750Y-25852380D02*
X135667559Y-25852380D01*
X135667559Y-24852380D01*
X136477083Y-25328571D02*
X136810416Y-25328571D01*
X136953273Y-25852380D02*
X136477083Y-25852380D01*
X136477083Y-24852380D01*
X136953273Y-24852380D01*
X137381845Y-25852380D02*
X137381845Y-24852380D01*
X137619940Y-24852380D01*
X137762797Y-24900000D01*
X137858035Y-24995238D01*
X137905654Y-25090476D01*
X137953273Y-25280952D01*
X137953273Y-25423809D01*
X137905654Y-25614285D01*
X137858035Y-25709523D01*
X137762797Y-25804761D01*
X137619940Y-25852380D01*
X137381845Y-25852380D01*
G04 #@! TO.C,MX2*
X113808035Y-36964880D02*
X113808035Y-35964880D01*
X114141369Y-36679166D01*
X114474702Y-35964880D01*
X114474702Y-36964880D01*
X114855654Y-35964880D02*
X115522321Y-36964880D01*
X115522321Y-35964880D02*
X114855654Y-36964880D01*
X115855654Y-36060119D02*
X115903273Y-36012500D01*
X115998511Y-35964880D01*
X116236607Y-35964880D01*
X116331845Y-36012500D01*
X116379464Y-36060119D01*
X116427083Y-36155357D01*
X116427083Y-36250595D01*
X116379464Y-36393452D01*
X115808035Y-36964880D01*
X116427083Y-36964880D01*
X111331845Y-25852380D02*
X111331845Y-24852380D01*
X111665178Y-25566666D01*
X111998511Y-24852380D01*
X111998511Y-25852380D01*
X112379464Y-24852380D02*
X113046130Y-25852380D01*
X113046130Y-24852380D02*
X112379464Y-25852380D01*
X113427083Y-25471428D02*
X114188988Y-25471428D01*
X114665178Y-25852380D02*
X114665178Y-24852380D01*
X115236607Y-25852380D01*
X115236607Y-24852380D01*
X115855654Y-25852380D02*
X115760416Y-25804761D01*
X115712797Y-25757142D01*
X115665178Y-25661904D01*
X115665178Y-25376190D01*
X115712797Y-25280952D01*
X115760416Y-25233333D01*
X115855654Y-25185714D01*
X115998511Y-25185714D01*
X116093750Y-25233333D01*
X116141369Y-25280952D01*
X116188988Y-25376190D01*
X116188988Y-25661904D01*
X116141369Y-25757142D01*
X116093750Y-25804761D01*
X115998511Y-25852380D01*
X115855654Y-25852380D01*
X117093750Y-25852380D02*
X116617559Y-25852380D01*
X116617559Y-24852380D01*
X117427083Y-25328571D02*
X117760416Y-25328571D01*
X117903273Y-25852380D02*
X117427083Y-25852380D01*
X117427083Y-24852380D01*
X117903273Y-24852380D01*
X118331845Y-25852380D02*
X118331845Y-24852380D01*
X118569940Y-24852380D01*
X118712797Y-24900000D01*
X118808035Y-24995238D01*
X118855654Y-25090476D01*
X118903273Y-25280952D01*
X118903273Y-25423809D01*
X118855654Y-25614285D01*
X118808035Y-25709523D01*
X118712797Y-25804761D01*
X118569940Y-25852380D01*
X118331845Y-25852380D01*
G04 #@! TO.C,MX1*
X94758035Y-36964880D02*
X94758035Y-35964880D01*
X95091369Y-36679166D01*
X95424702Y-35964880D01*
X95424702Y-36964880D01*
X95805654Y-35964880D02*
X96472321Y-36964880D01*
X96472321Y-35964880D02*
X95805654Y-36964880D01*
X97377083Y-36964880D02*
X96805654Y-36964880D01*
X97091369Y-36964880D02*
X97091369Y-35964880D01*
X96996130Y-36107738D01*
X96900892Y-36202976D01*
X96805654Y-36250595D01*
X92281845Y-25852380D02*
X92281845Y-24852380D01*
X92615178Y-25566666D01*
X92948511Y-24852380D01*
X92948511Y-25852380D01*
X93329464Y-24852380D02*
X93996130Y-25852380D01*
X93996130Y-24852380D02*
X93329464Y-25852380D01*
X94377083Y-25471428D02*
X95138988Y-25471428D01*
X95615178Y-25852380D02*
X95615178Y-24852380D01*
X96186607Y-25852380D01*
X96186607Y-24852380D01*
X96805654Y-25852380D02*
X96710416Y-25804761D01*
X96662797Y-25757142D01*
X96615178Y-25661904D01*
X96615178Y-25376190D01*
X96662797Y-25280952D01*
X96710416Y-25233333D01*
X96805654Y-25185714D01*
X96948511Y-25185714D01*
X97043750Y-25233333D01*
X97091369Y-25280952D01*
X97138988Y-25376190D01*
X97138988Y-25661904D01*
X97091369Y-25757142D01*
X97043750Y-25804761D01*
X96948511Y-25852380D01*
X96805654Y-25852380D01*
X98043750Y-25852380D02*
X97567559Y-25852380D01*
X97567559Y-24852380D01*
X98377083Y-25328571D02*
X98710416Y-25328571D01*
X98853273Y-25852380D02*
X98377083Y-25852380D01*
X98377083Y-24852380D01*
X98853273Y-24852380D01*
X99281845Y-25852380D02*
X99281845Y-24852380D01*
X99519940Y-24852380D01*
X99662797Y-24900000D01*
X99758035Y-24995238D01*
X99805654Y-25090476D01*
X99853273Y-25280952D01*
X99853273Y-25423809D01*
X99805654Y-25614285D01*
X99758035Y-25709523D01*
X99662797Y-25804761D01*
X99519940Y-25852380D01*
X99281845Y-25852380D01*
G04 #@! TD*
M02*
