G04 #@! TF.GenerationSoftware,KiCad,Pcbnew,(5.1.9-0-10_14)*
G04 #@! TF.CreationDate,2021-01-09T15:48:10-06:00*
G04 #@! TF.ProjectId,16-key,31362d6b-6579-42e6-9b69-6361645f7063,rev?*
G04 #@! TF.SameCoordinates,Original*
G04 #@! TF.FileFunction,Soldermask,Top*
G04 #@! TF.FilePolarity,Negative*
%FSLAX46Y46*%
G04 Gerber Fmt 4.6, Leading zero omitted, Abs format (unit mm)*
G04 Created by KiCad (PCBNEW (5.1.9-0-10_14)) date 2021-01-09 15:48:10*
%MOMM*%
%LPD*%
G01*
G04 APERTURE LIST*
%ADD10O,0.850000X0.850000*%
%ADD11R,0.850000X0.850000*%
%ADD12C,1.600000*%
%ADD13R,1.600000X1.600000*%
%ADD14C,2.000000*%
%ADD15C,3.987800*%
%ADD16C,1.750000*%
G04 APERTURE END LIST*
G04 #@! TO.C,R1*
G36*
G01*
X182043750Y-55112499D02*
X182043750Y-56012501D01*
G75*
G02*
X181793751Y-56262500I-249999J0D01*
G01*
X181268749Y-56262500D01*
G75*
G02*
X181018750Y-56012501I0J249999D01*
G01*
X181018750Y-55112499D01*
G75*
G02*
X181268749Y-54862500I249999J0D01*
G01*
X181793751Y-54862500D01*
G75*
G02*
X182043750Y-55112499I0J-249999D01*
G01*
G37*
G36*
G01*
X183868750Y-55112499D02*
X183868750Y-56012501D01*
G75*
G02*
X183618751Y-56262500I-249999J0D01*
G01*
X183093749Y-56262500D01*
G75*
G02*
X182843750Y-56012501I0J249999D01*
G01*
X182843750Y-55112499D01*
G75*
G02*
X183093749Y-54862500I249999J0D01*
G01*
X183618751Y-54862500D01*
G75*
G02*
X183868750Y-55112499I0J-249999D01*
G01*
G37*
G04 #@! TD*
D10*
G04 #@! TO.C,MICROSD1*
X173831250Y-78725000D03*
X173831250Y-79725000D03*
X173831250Y-80725000D03*
X173831250Y-81725000D03*
X173831250Y-82725000D03*
X173831250Y-83725000D03*
X173831250Y-84725000D03*
D11*
X173831250Y-85725000D03*
G04 #@! TD*
D12*
G04 #@! TO.C,U1*
X190976250Y-24923750D03*
X190976250Y-27463750D03*
X190976250Y-30003750D03*
X190976250Y-32543750D03*
X190976250Y-35083750D03*
X190976250Y-37623750D03*
X190976250Y-40163750D03*
X190976250Y-42703750D03*
X190976250Y-45243750D03*
X190976250Y-47783750D03*
X190976250Y-50323750D03*
X190976250Y-52863750D03*
X175736250Y-52863750D03*
X175736250Y-50323750D03*
X175736250Y-47783750D03*
X175736250Y-45243750D03*
X175736250Y-42703750D03*
X175736250Y-40163750D03*
X175736250Y-37623750D03*
X175736250Y-35083750D03*
X175736250Y-32543750D03*
X175736250Y-30003750D03*
X175736250Y-27463750D03*
D13*
X175736250Y-24923750D03*
G04 #@! TD*
D14*
G04 #@! TO.C,RESET1*
X190650000Y-58737500D03*
X190650000Y-63237500D03*
X184150000Y-58737500D03*
X184150000Y-63237500D03*
G04 #@! TD*
D15*
G04 #@! TO.C,MX16*
X153193750Y-90487500D03*
D16*
X148113750Y-90487500D03*
X158273750Y-90487500D03*
G04 #@! TD*
D15*
G04 #@! TO.C,MX15*
X134143750Y-90487500D03*
D16*
X129063750Y-90487500D03*
X139223750Y-90487500D03*
G04 #@! TD*
D15*
G04 #@! TO.C,MX14*
X115093750Y-90487500D03*
D16*
X110013750Y-90487500D03*
X120173750Y-90487500D03*
G04 #@! TD*
D15*
G04 #@! TO.C,MX13*
X96043750Y-90487500D03*
D16*
X90963750Y-90487500D03*
X101123750Y-90487500D03*
G04 #@! TD*
D15*
G04 #@! TO.C,MX12*
X153193750Y-71437500D03*
D16*
X148113750Y-71437500D03*
X158273750Y-71437500D03*
G04 #@! TD*
D15*
G04 #@! TO.C,MX11*
X134143750Y-71437500D03*
D16*
X129063750Y-71437500D03*
X139223750Y-71437500D03*
G04 #@! TD*
D15*
G04 #@! TO.C,MX10*
X115093750Y-71437500D03*
D16*
X110013750Y-71437500D03*
X120173750Y-71437500D03*
G04 #@! TD*
D15*
G04 #@! TO.C,MX9*
X96043750Y-71437500D03*
D16*
X90963750Y-71437500D03*
X101123750Y-71437500D03*
G04 #@! TD*
D15*
G04 #@! TO.C,MX8*
X153193750Y-52387500D03*
D16*
X148113750Y-52387500D03*
X158273750Y-52387500D03*
G04 #@! TD*
D15*
G04 #@! TO.C,MX7*
X134143750Y-52387500D03*
D16*
X129063750Y-52387500D03*
X139223750Y-52387500D03*
G04 #@! TD*
D15*
G04 #@! TO.C,MX6*
X115093750Y-52387500D03*
D16*
X110013750Y-52387500D03*
X120173750Y-52387500D03*
G04 #@! TD*
D15*
G04 #@! TO.C,MX5*
X96043750Y-52387500D03*
D16*
X90963750Y-52387500D03*
X101123750Y-52387500D03*
G04 #@! TD*
D15*
G04 #@! TO.C,MX4*
X153193750Y-33337500D03*
D16*
X148113750Y-33337500D03*
X158273750Y-33337500D03*
G04 #@! TD*
D15*
G04 #@! TO.C,MX3*
X134143750Y-33337500D03*
D16*
X129063750Y-33337500D03*
X139223750Y-33337500D03*
G04 #@! TD*
D15*
G04 #@! TO.C,MX2*
X115093750Y-33337500D03*
D16*
X110013750Y-33337500D03*
X120173750Y-33337500D03*
G04 #@! TD*
D15*
G04 #@! TO.C,MX1*
X96043750Y-33337500D03*
D16*
X90963750Y-33337500D03*
X101123750Y-33337500D03*
G04 #@! TD*
G04 #@! TO.C,D16*
G36*
G01*
X161587500Y-92275000D02*
X160675000Y-92275000D01*
G75*
G02*
X160431250Y-92031250I0J243750D01*
G01*
X160431250Y-91543750D01*
G75*
G02*
X160675000Y-91300000I243750J0D01*
G01*
X161587500Y-91300000D01*
G75*
G02*
X161831250Y-91543750I0J-243750D01*
G01*
X161831250Y-92031250D01*
G75*
G02*
X161587500Y-92275000I-243750J0D01*
G01*
G37*
G36*
G01*
X161587500Y-94150000D02*
X160675000Y-94150000D01*
G75*
G02*
X160431250Y-93906250I0J243750D01*
G01*
X160431250Y-93418750D01*
G75*
G02*
X160675000Y-93175000I243750J0D01*
G01*
X161587500Y-93175000D01*
G75*
G02*
X161831250Y-93418750I0J-243750D01*
G01*
X161831250Y-93906250D01*
G75*
G02*
X161587500Y-94150000I-243750J0D01*
G01*
G37*
G04 #@! TD*
G04 #@! TO.C,D15*
G36*
G01*
X142537500Y-92275000D02*
X141625000Y-92275000D01*
G75*
G02*
X141381250Y-92031250I0J243750D01*
G01*
X141381250Y-91543750D01*
G75*
G02*
X141625000Y-91300000I243750J0D01*
G01*
X142537500Y-91300000D01*
G75*
G02*
X142781250Y-91543750I0J-243750D01*
G01*
X142781250Y-92031250D01*
G75*
G02*
X142537500Y-92275000I-243750J0D01*
G01*
G37*
G36*
G01*
X142537500Y-94150000D02*
X141625000Y-94150000D01*
G75*
G02*
X141381250Y-93906250I0J243750D01*
G01*
X141381250Y-93418750D01*
G75*
G02*
X141625000Y-93175000I243750J0D01*
G01*
X142537500Y-93175000D01*
G75*
G02*
X142781250Y-93418750I0J-243750D01*
G01*
X142781250Y-93906250D01*
G75*
G02*
X142537500Y-94150000I-243750J0D01*
G01*
G37*
G04 #@! TD*
G04 #@! TO.C,D14*
G36*
G01*
X123487500Y-92275000D02*
X122575000Y-92275000D01*
G75*
G02*
X122331250Y-92031250I0J243750D01*
G01*
X122331250Y-91543750D01*
G75*
G02*
X122575000Y-91300000I243750J0D01*
G01*
X123487500Y-91300000D01*
G75*
G02*
X123731250Y-91543750I0J-243750D01*
G01*
X123731250Y-92031250D01*
G75*
G02*
X123487500Y-92275000I-243750J0D01*
G01*
G37*
G36*
G01*
X123487500Y-94150000D02*
X122575000Y-94150000D01*
G75*
G02*
X122331250Y-93906250I0J243750D01*
G01*
X122331250Y-93418750D01*
G75*
G02*
X122575000Y-93175000I243750J0D01*
G01*
X123487500Y-93175000D01*
G75*
G02*
X123731250Y-93418750I0J-243750D01*
G01*
X123731250Y-93906250D01*
G75*
G02*
X123487500Y-94150000I-243750J0D01*
G01*
G37*
G04 #@! TD*
G04 #@! TO.C,D13*
G36*
G01*
X104437500Y-92275000D02*
X103525000Y-92275000D01*
G75*
G02*
X103281250Y-92031250I0J243750D01*
G01*
X103281250Y-91543750D01*
G75*
G02*
X103525000Y-91300000I243750J0D01*
G01*
X104437500Y-91300000D01*
G75*
G02*
X104681250Y-91543750I0J-243750D01*
G01*
X104681250Y-92031250D01*
G75*
G02*
X104437500Y-92275000I-243750J0D01*
G01*
G37*
G36*
G01*
X104437500Y-94150000D02*
X103525000Y-94150000D01*
G75*
G02*
X103281250Y-93906250I0J243750D01*
G01*
X103281250Y-93418750D01*
G75*
G02*
X103525000Y-93175000I243750J0D01*
G01*
X104437500Y-93175000D01*
G75*
G02*
X104681250Y-93418750I0J-243750D01*
G01*
X104681250Y-93906250D01*
G75*
G02*
X104437500Y-94150000I-243750J0D01*
G01*
G37*
G04 #@! TD*
G04 #@! TO.C,D12*
G36*
G01*
X161587500Y-73225000D02*
X160675000Y-73225000D01*
G75*
G02*
X160431250Y-72981250I0J243750D01*
G01*
X160431250Y-72493750D01*
G75*
G02*
X160675000Y-72250000I243750J0D01*
G01*
X161587500Y-72250000D01*
G75*
G02*
X161831250Y-72493750I0J-243750D01*
G01*
X161831250Y-72981250D01*
G75*
G02*
X161587500Y-73225000I-243750J0D01*
G01*
G37*
G36*
G01*
X161587500Y-75100000D02*
X160675000Y-75100000D01*
G75*
G02*
X160431250Y-74856250I0J243750D01*
G01*
X160431250Y-74368750D01*
G75*
G02*
X160675000Y-74125000I243750J0D01*
G01*
X161587500Y-74125000D01*
G75*
G02*
X161831250Y-74368750I0J-243750D01*
G01*
X161831250Y-74856250D01*
G75*
G02*
X161587500Y-75100000I-243750J0D01*
G01*
G37*
G04 #@! TD*
G04 #@! TO.C,D11*
G36*
G01*
X142537500Y-73368750D02*
X141625000Y-73368750D01*
G75*
G02*
X141381250Y-73125000I0J243750D01*
G01*
X141381250Y-72637500D01*
G75*
G02*
X141625000Y-72393750I243750J0D01*
G01*
X142537500Y-72393750D01*
G75*
G02*
X142781250Y-72637500I0J-243750D01*
G01*
X142781250Y-73125000D01*
G75*
G02*
X142537500Y-73368750I-243750J0D01*
G01*
G37*
G36*
G01*
X142537500Y-75243750D02*
X141625000Y-75243750D01*
G75*
G02*
X141381250Y-75000000I0J243750D01*
G01*
X141381250Y-74512500D01*
G75*
G02*
X141625000Y-74268750I243750J0D01*
G01*
X142537500Y-74268750D01*
G75*
G02*
X142781250Y-74512500I0J-243750D01*
G01*
X142781250Y-75000000D01*
G75*
G02*
X142537500Y-75243750I-243750J0D01*
G01*
G37*
G04 #@! TD*
G04 #@! TO.C,D10*
G36*
G01*
X123487500Y-73225000D02*
X122575000Y-73225000D01*
G75*
G02*
X122331250Y-72981250I0J243750D01*
G01*
X122331250Y-72493750D01*
G75*
G02*
X122575000Y-72250000I243750J0D01*
G01*
X123487500Y-72250000D01*
G75*
G02*
X123731250Y-72493750I0J-243750D01*
G01*
X123731250Y-72981250D01*
G75*
G02*
X123487500Y-73225000I-243750J0D01*
G01*
G37*
G36*
G01*
X123487500Y-75100000D02*
X122575000Y-75100000D01*
G75*
G02*
X122331250Y-74856250I0J243750D01*
G01*
X122331250Y-74368750D01*
G75*
G02*
X122575000Y-74125000I243750J0D01*
G01*
X123487500Y-74125000D01*
G75*
G02*
X123731250Y-74368750I0J-243750D01*
G01*
X123731250Y-74856250D01*
G75*
G02*
X123487500Y-75100000I-243750J0D01*
G01*
G37*
G04 #@! TD*
G04 #@! TO.C,D9*
G36*
G01*
X104437500Y-73225000D02*
X103525000Y-73225000D01*
G75*
G02*
X103281250Y-72981250I0J243750D01*
G01*
X103281250Y-72493750D01*
G75*
G02*
X103525000Y-72250000I243750J0D01*
G01*
X104437500Y-72250000D01*
G75*
G02*
X104681250Y-72493750I0J-243750D01*
G01*
X104681250Y-72981250D01*
G75*
G02*
X104437500Y-73225000I-243750J0D01*
G01*
G37*
G36*
G01*
X104437500Y-75100000D02*
X103525000Y-75100000D01*
G75*
G02*
X103281250Y-74856250I0J243750D01*
G01*
X103281250Y-74368750D01*
G75*
G02*
X103525000Y-74125000I243750J0D01*
G01*
X104437500Y-74125000D01*
G75*
G02*
X104681250Y-74368750I0J-243750D01*
G01*
X104681250Y-74856250D01*
G75*
G02*
X104437500Y-75100000I-243750J0D01*
G01*
G37*
G04 #@! TD*
G04 #@! TO.C,D8*
G36*
G01*
X161587500Y-54175000D02*
X160675000Y-54175000D01*
G75*
G02*
X160431250Y-53931250I0J243750D01*
G01*
X160431250Y-53443750D01*
G75*
G02*
X160675000Y-53200000I243750J0D01*
G01*
X161587500Y-53200000D01*
G75*
G02*
X161831250Y-53443750I0J-243750D01*
G01*
X161831250Y-53931250D01*
G75*
G02*
X161587500Y-54175000I-243750J0D01*
G01*
G37*
G36*
G01*
X161587500Y-56050000D02*
X160675000Y-56050000D01*
G75*
G02*
X160431250Y-55806250I0J243750D01*
G01*
X160431250Y-55318750D01*
G75*
G02*
X160675000Y-55075000I243750J0D01*
G01*
X161587500Y-55075000D01*
G75*
G02*
X161831250Y-55318750I0J-243750D01*
G01*
X161831250Y-55806250D01*
G75*
G02*
X161587500Y-56050000I-243750J0D01*
G01*
G37*
G04 #@! TD*
G04 #@! TO.C,D7*
G36*
G01*
X142537500Y-54175000D02*
X141625000Y-54175000D01*
G75*
G02*
X141381250Y-53931250I0J243750D01*
G01*
X141381250Y-53443750D01*
G75*
G02*
X141625000Y-53200000I243750J0D01*
G01*
X142537500Y-53200000D01*
G75*
G02*
X142781250Y-53443750I0J-243750D01*
G01*
X142781250Y-53931250D01*
G75*
G02*
X142537500Y-54175000I-243750J0D01*
G01*
G37*
G36*
G01*
X142537500Y-56050000D02*
X141625000Y-56050000D01*
G75*
G02*
X141381250Y-55806250I0J243750D01*
G01*
X141381250Y-55318750D01*
G75*
G02*
X141625000Y-55075000I243750J0D01*
G01*
X142537500Y-55075000D01*
G75*
G02*
X142781250Y-55318750I0J-243750D01*
G01*
X142781250Y-55806250D01*
G75*
G02*
X142537500Y-56050000I-243750J0D01*
G01*
G37*
G04 #@! TD*
G04 #@! TO.C,D6*
G36*
G01*
X123487500Y-54318750D02*
X122575000Y-54318750D01*
G75*
G02*
X122331250Y-54075000I0J243750D01*
G01*
X122331250Y-53587500D01*
G75*
G02*
X122575000Y-53343750I243750J0D01*
G01*
X123487500Y-53343750D01*
G75*
G02*
X123731250Y-53587500I0J-243750D01*
G01*
X123731250Y-54075000D01*
G75*
G02*
X123487500Y-54318750I-243750J0D01*
G01*
G37*
G36*
G01*
X123487500Y-56193750D02*
X122575000Y-56193750D01*
G75*
G02*
X122331250Y-55950000I0J243750D01*
G01*
X122331250Y-55462500D01*
G75*
G02*
X122575000Y-55218750I243750J0D01*
G01*
X123487500Y-55218750D01*
G75*
G02*
X123731250Y-55462500I0J-243750D01*
G01*
X123731250Y-55950000D01*
G75*
G02*
X123487500Y-56193750I-243750J0D01*
G01*
G37*
G04 #@! TD*
G04 #@! TO.C,D5*
G36*
G01*
X105231250Y-54175000D02*
X104318750Y-54175000D01*
G75*
G02*
X104075000Y-53931250I0J243750D01*
G01*
X104075000Y-53443750D01*
G75*
G02*
X104318750Y-53200000I243750J0D01*
G01*
X105231250Y-53200000D01*
G75*
G02*
X105475000Y-53443750I0J-243750D01*
G01*
X105475000Y-53931250D01*
G75*
G02*
X105231250Y-54175000I-243750J0D01*
G01*
G37*
G36*
G01*
X105231250Y-56050000D02*
X104318750Y-56050000D01*
G75*
G02*
X104075000Y-55806250I0J243750D01*
G01*
X104075000Y-55318750D01*
G75*
G02*
X104318750Y-55075000I243750J0D01*
G01*
X105231250Y-55075000D01*
G75*
G02*
X105475000Y-55318750I0J-243750D01*
G01*
X105475000Y-55806250D01*
G75*
G02*
X105231250Y-56050000I-243750J0D01*
G01*
G37*
G04 #@! TD*
G04 #@! TO.C,D4*
G36*
G01*
X161587500Y-35125000D02*
X160675000Y-35125000D01*
G75*
G02*
X160431250Y-34881250I0J243750D01*
G01*
X160431250Y-34393750D01*
G75*
G02*
X160675000Y-34150000I243750J0D01*
G01*
X161587500Y-34150000D01*
G75*
G02*
X161831250Y-34393750I0J-243750D01*
G01*
X161831250Y-34881250D01*
G75*
G02*
X161587500Y-35125000I-243750J0D01*
G01*
G37*
G36*
G01*
X161587500Y-37000000D02*
X160675000Y-37000000D01*
G75*
G02*
X160431250Y-36756250I0J243750D01*
G01*
X160431250Y-36268750D01*
G75*
G02*
X160675000Y-36025000I243750J0D01*
G01*
X161587500Y-36025000D01*
G75*
G02*
X161831250Y-36268750I0J-243750D01*
G01*
X161831250Y-36756250D01*
G75*
G02*
X161587500Y-37000000I-243750J0D01*
G01*
G37*
G04 #@! TD*
G04 #@! TO.C,D3*
G36*
G01*
X142537500Y-35125000D02*
X141625000Y-35125000D01*
G75*
G02*
X141381250Y-34881250I0J243750D01*
G01*
X141381250Y-34393750D01*
G75*
G02*
X141625000Y-34150000I243750J0D01*
G01*
X142537500Y-34150000D01*
G75*
G02*
X142781250Y-34393750I0J-243750D01*
G01*
X142781250Y-34881250D01*
G75*
G02*
X142537500Y-35125000I-243750J0D01*
G01*
G37*
G36*
G01*
X142537500Y-37000000D02*
X141625000Y-37000000D01*
G75*
G02*
X141381250Y-36756250I0J243750D01*
G01*
X141381250Y-36268750D01*
G75*
G02*
X141625000Y-36025000I243750J0D01*
G01*
X142537500Y-36025000D01*
G75*
G02*
X142781250Y-36268750I0J-243750D01*
G01*
X142781250Y-36756250D01*
G75*
G02*
X142537500Y-37000000I-243750J0D01*
G01*
G37*
G04 #@! TD*
G04 #@! TO.C,D2*
G36*
G01*
X123487500Y-35125000D02*
X122575000Y-35125000D01*
G75*
G02*
X122331250Y-34881250I0J243750D01*
G01*
X122331250Y-34393750D01*
G75*
G02*
X122575000Y-34150000I243750J0D01*
G01*
X123487500Y-34150000D01*
G75*
G02*
X123731250Y-34393750I0J-243750D01*
G01*
X123731250Y-34881250D01*
G75*
G02*
X123487500Y-35125000I-243750J0D01*
G01*
G37*
G36*
G01*
X123487500Y-37000000D02*
X122575000Y-37000000D01*
G75*
G02*
X122331250Y-36756250I0J243750D01*
G01*
X122331250Y-36268750D01*
G75*
G02*
X122575000Y-36025000I243750J0D01*
G01*
X123487500Y-36025000D01*
G75*
G02*
X123731250Y-36268750I0J-243750D01*
G01*
X123731250Y-36756250D01*
G75*
G02*
X123487500Y-37000000I-243750J0D01*
G01*
G37*
G04 #@! TD*
G04 #@! TO.C,D1*
G36*
G01*
X104437500Y-35125000D02*
X103525000Y-35125000D01*
G75*
G02*
X103281250Y-34881250I0J243750D01*
G01*
X103281250Y-34393750D01*
G75*
G02*
X103525000Y-34150000I243750J0D01*
G01*
X104437500Y-34150000D01*
G75*
G02*
X104681250Y-34393750I0J-243750D01*
G01*
X104681250Y-34881250D01*
G75*
G02*
X104437500Y-35125000I-243750J0D01*
G01*
G37*
G36*
G01*
X104437500Y-37000000D02*
X103525000Y-37000000D01*
G75*
G02*
X103281250Y-36756250I0J243750D01*
G01*
X103281250Y-36268750D01*
G75*
G02*
X103525000Y-36025000I243750J0D01*
G01*
X104437500Y-36025000D01*
G75*
G02*
X104681250Y-36268750I0J-243750D01*
G01*
X104681250Y-36756250D01*
G75*
G02*
X104437500Y-37000000I-243750J0D01*
G01*
G37*
G04 #@! TD*
M02*
