M48
; DRILL file {KiCad (5.1.9-0-10_14)} date Saturday, January 09, 2021 at 03:48:15 PM
; FORMAT={-:-/ absolute / inch / decimal}
; #@! TF.CreationDate,2021-01-09T15:48:15-06:00
; #@! TF.GenerationSoftware,Kicad,Pcbnew,(5.1.9-0-10_14)
; #@! TF.FileFunction,NonPlated,1,2,NPTH
FMAT,2
INCH
T1C0.0689
T2C0.1570
%
G90
G05
T1
X3.5812Y-1.3125
X3.5812Y-2.0625
X3.5812Y-2.8125
X3.5812Y-3.5625
X3.9812Y-1.3125
X3.9812Y-2.0625
X3.9812Y-2.8125
X3.9812Y-3.5625
X4.3312Y-1.3125
X4.3312Y-2.0625
X4.3312Y-2.8125
X4.3312Y-3.5625
X4.7313Y-1.3125
X4.7313Y-2.0625
X4.7313Y-2.8125
X4.7313Y-3.5625
X5.0812Y-1.3125
X5.0812Y-2.0625
X5.0812Y-2.8125
X5.0812Y-3.5625
X5.4813Y-1.3125
X5.4813Y-2.0625
X5.4813Y-2.8125
X5.4813Y-3.5625
X5.8312Y-1.3125
X5.8312Y-2.0625
X5.8312Y-2.8125
X5.8312Y-3.5625
X6.2313Y-1.3125
X6.2313Y-2.0625
X6.2313Y-2.8125
X6.2313Y-3.5625
T2
X3.7812Y-1.3125
X3.7812Y-2.0625
X3.7812Y-2.8125
X3.7812Y-3.5625
X4.5312Y-1.3125
X4.5312Y-2.0625
X4.5312Y-2.8125
X4.5312Y-3.5625
X5.2812Y-1.3125
X5.2812Y-2.0625
X5.2812Y-2.8125
X5.2812Y-3.5625
X6.0312Y-1.3125
X6.0312Y-2.0625
X6.0312Y-2.8125
X6.0312Y-3.5625
T0
M30
