G04 #@! TF.GenerationSoftware,KiCad,Pcbnew,(5.1.9-0-10_14)*
G04 #@! TF.CreationDate,2021-01-09T16:16:36-06:00*
G04 #@! TF.ProjectId,16-key,31362d6b-6579-42e6-9b69-6361645f7063,rev?*
G04 #@! TF.SameCoordinates,Original*
G04 #@! TF.FileFunction,Legend,Bot*
G04 #@! TF.FilePolarity,Positive*
%FSLAX46Y46*%
G04 Gerber Fmt 4.6, Leading zero omitted, Abs format (unit mm)*
G04 Created by KiCad (PCBNEW (5.1.9-0-10_14)) date 2021-01-09 16:16:36*
%MOMM*%
%LPD*%
G01*
G04 APERTURE LIST*
%ADD10C,0.150000*%
G04 APERTURE END LIST*
D10*
X194325297Y-92321130D02*
X194325297Y-93035416D01*
X194372916Y-93178273D01*
X194468154Y-93273511D01*
X194611011Y-93321130D01*
X194706250Y-93321130D01*
X193372916Y-93321130D02*
X193849107Y-93321130D01*
X193849107Y-92321130D01*
X192468154Y-93225892D02*
X192515773Y-93273511D01*
X192658630Y-93321130D01*
X192753869Y-93321130D01*
X192896726Y-93273511D01*
X192991964Y-93178273D01*
X193039583Y-93083035D01*
X193087202Y-92892559D01*
X193087202Y-92749702D01*
X193039583Y-92559226D01*
X192991964Y-92463988D01*
X192896726Y-92368750D01*
X192753869Y-92321130D01*
X192658630Y-92321130D01*
X192515773Y-92368750D01*
X192468154Y-92416369D01*
X191753869Y-92321130D02*
X191753869Y-93035416D01*
X191801488Y-93178273D01*
X191896726Y-93273511D01*
X192039583Y-93321130D01*
X192134821Y-93321130D01*
X190801488Y-93321130D02*
X191277678Y-93321130D01*
X191277678Y-92321130D01*
X189896726Y-93225892D02*
X189944345Y-93273511D01*
X190087202Y-93321130D01*
X190182440Y-93321130D01*
X190325297Y-93273511D01*
X190420535Y-93178273D01*
X190468154Y-93083035D01*
X190515773Y-92892559D01*
X190515773Y-92749702D01*
X190468154Y-92559226D01*
X190420535Y-92463988D01*
X190325297Y-92368750D01*
X190182440Y-92321130D01*
X190087202Y-92321130D01*
X189944345Y-92368750D01*
X189896726Y-92416369D01*
X189182440Y-92321130D02*
X189182440Y-93035416D01*
X189230059Y-93178273D01*
X189325297Y-93273511D01*
X189468154Y-93321130D01*
X189563392Y-93321130D01*
X188230059Y-93321130D02*
X188706250Y-93321130D01*
X188706250Y-92321130D01*
X187325297Y-93225892D02*
X187372916Y-93273511D01*
X187515773Y-93321130D01*
X187611011Y-93321130D01*
X187753869Y-93273511D01*
X187849107Y-93178273D01*
X187896726Y-93083035D01*
X187944345Y-92892559D01*
X187944345Y-92749702D01*
X187896726Y-92559226D01*
X187849107Y-92463988D01*
X187753869Y-92368750D01*
X187611011Y-92321130D01*
X187515773Y-92321130D01*
X187372916Y-92368750D01*
X187325297Y-92416369D01*
X186611011Y-92321130D02*
X186611011Y-93035416D01*
X186658630Y-93178273D01*
X186753869Y-93273511D01*
X186896726Y-93321130D01*
X186991964Y-93321130D01*
X185658630Y-93321130D02*
X186134821Y-93321130D01*
X186134821Y-92321130D01*
X184753869Y-93225892D02*
X184801488Y-93273511D01*
X184944345Y-93321130D01*
X185039583Y-93321130D01*
X185182440Y-93273511D01*
X185277678Y-93178273D01*
X185325297Y-93083035D01*
X185372916Y-92892559D01*
X185372916Y-92749702D01*
X185325297Y-92559226D01*
X185277678Y-92463988D01*
X185182440Y-92368750D01*
X185039583Y-92321130D01*
X184944345Y-92321130D01*
X184801488Y-92368750D01*
X184753869Y-92416369D01*
G04 #@! TO.C,U1*
X192246250Y-23653750D02*
X192246250Y-54133750D01*
X187166250Y-23653750D02*
X192246250Y-23653750D01*
X187166250Y-21113750D02*
X187166250Y-23653750D01*
X179546250Y-21113750D02*
X187166250Y-21113750D01*
X179546250Y-23653750D02*
X179546250Y-21113750D01*
X174466250Y-23653750D02*
X179546250Y-23653750D01*
X174466250Y-54133750D02*
X174466250Y-23653750D01*
X192246250Y-54133750D02*
X174466250Y-54133750D01*
G04 #@! TD*
M02*
